<svg
              width="125"
              height="41"
              viewBox="0 0 125 41"
              fill="none"
              xmlns="http://www.w3.org/2000/svg"
            >
              <rect
                x="0.5"
                y="0.5"
                width="124"
                height="40"
                rx="9.5"
                fill="#EEF2FF"
                stroke="#6366F1"
              />
              <path
                d="M42.179 18.0994H44.8636C44.4162 15.2443 41.9446 13.2557 38.7273 13.2557C34.9205 13.2557 32.0653 16.054 32.0653 20.7415C32.0653 25.3438 34.7926 28.1989 38.8054 28.1989C42.4062 28.1989 44.9844 25.8835 44.9844 22.1335V20.3864H39.0824V22.446H42.4347C42.392 24.5199 41.0071 25.8338 38.8196 25.8338C36.3835 25.8338 34.7145 24.0085 34.7145 20.7131C34.7145 17.4389 36.4119 15.6207 38.7628 15.6207C40.517 15.6207 41.7102 16.5582 42.179 18.0994ZM58.3846 16.5298C58.3775 17.8935 58.2567 18.6179 56.9854 18.7884V17.0909H54.4144V23.4119C54.4144 25.0739 53.2283 25.8977 52.092 25.8977C50.8562 25.8977 50.0323 25.0241 50.0323 23.6392V17.0909H47.4613V24.0369C47.4613 26.6577 48.9528 28.142 51.0977 28.142C52.7312 28.142 53.8817 27.2827 54.3789 26.0611H54.4925V28H56.9854V20.0881C59.3008 19.9034 60.0323 18.696 60.0394 16.5298H58.3846ZM53.2283 15.5568V14.9034C53.9883 14.7898 54.734 14.3849 54.7269 13.483C54.734 12.304 53.4982 11.5795 51.1545 11.5795L51.0906 12.8509C51.9144 12.8509 52.5465 13.0213 52.5394 13.5327C52.5465 13.9304 52.1701 14.1506 51.1687 14.1932L51.2681 15.5568H53.2283ZM61.0124 28H63.5835V17.0909H61.0124V28ZM62.305 15.5426C63.1218 15.5426 63.7894 14.9176 63.7894 14.1506C63.7894 13.3764 63.1218 12.7514 62.305 12.7514C61.4812 12.7514 60.8136 13.3764 60.8136 14.1506C60.8136 14.9176 61.4812 15.5426 62.305 15.5426Z"
                fill="#6366F1"
              />
              <path
                d="M82.6938 20.9999L79.2988 12.2719C79.0628 11.6649 79.6548 11.0839 80.2408 11.2899L80.3338 11.3299L98.3338 20.3299C98.4496 20.3879 98.5485 20.475 98.6207 20.5826C98.6929 20.6902 98.7359 20.8147 98.7457 20.9439C98.7555 21.0731 98.7316 21.2027 98.6764 21.3199C98.6212 21.4372 98.5366 21.5381 98.4308 21.6129L98.3338 21.6709L80.3338 30.6709C79.7508 30.9619 79.1168 30.4269 79.2688 29.8239L79.2988 29.7279L82.6938 20.9999L79.2988 12.2719L82.6938 20.9999ZM81.4018 13.5399L84.0118 20.2499H90.6388C90.82 20.2499 90.9951 20.3155 91.1317 20.4347C91.2683 20.5538 91.3571 20.7183 91.3818 20.8979L91.3888 20.9999C91.3887 21.1813 91.323 21.3565 91.2036 21.4931C91.0843 21.6297 90.9195 21.7185 90.7398 21.7429L90.6388 21.7499H84.0098L81.4008 28.4599L96.3218 20.9999L81.4008 13.5399H81.4018Z"
                fill="#6366F1"
              />
            </svg>