<svg width="21" height="21" viewBox="0 0 21 21" fill="none" xmlns="http://www.w3.org/2000/svg">
<path fill-rule="evenodd" clip-rule="evenodd" d="M10.5008 13.294L15.6793 18.596C16.1988 19.132 16.5368 19.1375 17.0658 18.596L18.1048 17.532C18.6138 17.011 18.6483 16.669 18.1048 16.1125L12.6223 10.5L18.1053 4.88751C18.6188 4.36001 18.6288 4.00401 18.1053 3.46751L17.0663 2.40401C16.5273 1.85201 16.1943 1.87751 15.6798 2.40401L10.5008 7.70601L5.32232 2.40451C4.80782 1.87801 4.47482 1.85251 3.93582 2.40451L2.89682 3.46801C2.37282 4.00451 2.38232 4.36051 2.89682 4.88801L8.37932 10.5L2.89682 16.1125C2.35332 16.669 2.38232 17.011 2.89682 17.532L3.93532 18.596C4.45982 19.1375 4.79782 19.132 5.32182 18.596L10.5008 13.294Z" fill="#6366F1"/>
</svg>
