<svg width="40" height="40" viewBox="0 0 40 40" fill="none" xmlns="http://www.w3.org/2000/svg">
<path d="M15.2864 27.07L19.9997 22.3567L24.713 27.07L27.0697 24.7133L22.3564 20L27.0697 15.2867L24.713 12.93L19.9997 17.6433L15.2864 12.93L12.9297 15.2867L17.643 20L12.9297 24.7133L15.2864 27.07Z" fill="#6366F1"/>
<path d="M20.0002 36.6666C29.1902 36.6666 36.6668 29.19 36.6668 20C36.6668 10.81 29.1902 3.33331 20.0002 3.33331C10.8102 3.33331 3.3335 10.81 3.3335 20C3.3335 29.19 10.8102 36.6666 20.0002 36.6666ZM20.0002 6.66665C27.3518 6.66665 33.3335 12.6483 33.3335 20C33.3335 27.3516 27.3518 33.3333 20.0002 33.3333C12.6485 33.3333 6.66683 27.3516 6.66683 20C6.66683 12.6483 12.6485 6.66665 20.0002 6.66665Z" fill="#6366F1"/>
</svg>
