<svg
              xmlns="http://www.w3.org/2000/svg"
              width="24"
              height="24"
              viewBox="0 0 24 24"
              fill="none"
            >
              <path
                d="M8.95989 14.25C8.22587 14.2501 7.50832 14.0325 6.89798 13.6247C6.28765 13.2169 5.81195 12.6373 5.53104 11.9592C5.25013 11.2811 5.17664 10.5348 5.31986 9.81493C5.46308 9.09502 5.81658 8.43375 6.33564 7.91476L10.1651 4.08676C10.8611 3.39076 11.8051 2.99976 12.7894 2.99976C13.7737 2.99976 14.7176 3.39076 15.4136 4.08676C16.1096 4.78275 16.5006 5.72672 16.5006 6.71101C16.5006 7.69529 16.1096 8.63926 15.4136 9.33526L14.9989 9.74926L13.9376 8.68951L14.3554 8.27176C14.7686 7.85662 15.0003 7.29459 14.9997 6.70889C14.9991 6.12318 14.7664 5.5616 14.3524 5.14726C13.9311 4.74517 13.371 4.52083 12.7886 4.52083C12.2062 4.52083 11.6462 4.74517 11.2249 5.14726L7.39689 8.97526C7.19139 9.18053 7.02836 9.42429 6.91714 9.69261C6.80591 9.96093 6.74866 10.2485 6.74866 10.539C6.74866 10.8295 6.80591 11.1171 6.91714 11.3854C7.02836 11.6537 7.19139 11.8975 7.39689 12.1028C7.81822 12.5048 8.37824 12.7292 8.96064 12.7292C9.54304 12.7292 10.1031 12.5048 10.5244 12.1028L11.5849 13.1633C11.2409 13.5089 10.8318 13.783 10.3812 13.9695C9.93065 14.156 9.44755 14.2514 8.95989 14.25Z"
                fill="#6366F1"
              />
              <path
                d="M14.9599 12.75C14.2259 12.7501 13.5083 12.5325 12.898 12.1247C12.2876 11.7169 11.8119 11.1373 11.531 10.4592C11.2501 9.78105 11.1766 9.03484 11.3199 8.31493C11.4631 7.59502 11.8166 6.93375 12.3356 6.41476L12.7504 6.00076L13.8109 7.06201L13.3969 7.47601C12.9823 7.89065 12.7493 8.45301 12.7493 9.03938C12.7493 9.62576 12.9823 10.1881 13.3969 10.6028C13.8182 11.0048 14.3782 11.2292 14.9606 11.2292C15.543 11.2292 16.1031 11.0048 16.5244 10.6028L20.3531 6.77401C20.767 6.3591 20.9994 5.79701 20.9994 5.21101C20.9994 4.625 20.767 4.06291 20.3531 3.64801C19.9318 3.24592 19.3718 3.02158 18.7894 3.02158C18.207 3.02158 17.647 3.24592 17.2256 3.64801L16.1651 2.58676C16.8611 1.89076 17.8051 1.49976 18.7894 1.49976C19.7737 1.49976 20.7176 1.89076 21.4136 2.58676C22.1096 3.28275 22.5006 4.22672 22.5006 5.21101C22.5006 6.19529 22.1096 7.13926 21.4136 7.83526L17.5856 11.6625C17.2417 12.0083 16.8326 12.2824 16.382 12.469C15.9314 12.6557 15.4483 12.7512 14.9606 12.75H14.9599Z"
                fill="#6366F1"
              />
              <path
                d="M18 22.5H3C2.6023 22.4996 2.221 22.3414 1.93978 22.0602C1.65856 21.779 1.5004 21.3977 1.5 21V6C1.5004 5.6023 1.65856 5.221 1.93978 4.93978C2.221 4.65856 2.6023 4.5004 3 4.5H6V6H3V21H18V13.5H19.5V21C19.4996 21.3977 19.3414 21.779 19.0602 22.0602C18.779 22.3414 18.3977 22.4996 18 22.5Z"
                fill="#6366F1"
              />
            </svg>