<svg width="20" height="20" viewBox="0 0 20 14" fill="none" xmlns="http://www.w3.org/2000/svg">
<path d="M0.998892 11.4472H12.9989C13.2538 11.4475 13.4989 11.538 13.6843 11.7002C13.8696 11.8624 13.9811 12.0841 13.9961 12.3201C14.011 12.556 13.9282 12.7883 13.7646 12.9695C13.601 13.1507 13.369 13.2672 13.1159 13.2951L12.9989 13.3016H0.998892C0.744012 13.3013 0.49886 13.2109 0.313524 13.0486C0.128188 12.8864 0.0166571 12.6647 0.00172003 12.4287C-0.0132171 12.1928 0.0695667 11.9605 0.233157 11.7793C0.396747 11.5981 0.628796 11.4816 0.881891 11.4537L0.998892 11.4472H12.9989H0.998892ZM0.998892 7.7384H18.9989C19.2538 7.73867 19.4989 7.82916 19.6842 7.99139C19.8696 8.15362 19.9811 8.37535 19.9961 8.61127C20.011 8.84718 19.9282 9.07949 19.7646 9.26071C19.601 9.44193 19.369 9.5584 19.1159 9.58631L18.9989 9.5928H0.998892C0.744012 9.59254 0.49886 9.50205 0.313524 9.33982C0.128188 9.17759 0.0166571 8.95586 0.00172003 8.71994C-0.0132171 8.48402 0.0695667 8.25172 0.233157 8.0705C0.396747 7.88927 0.628796 7.77281 0.881891 7.74489L0.998892 7.7384H18.9989H0.998892ZM0.998892 4.0296H18.9989C19.2538 4.02986 19.4989 4.12036 19.6842 4.28259C19.8696 4.44482 19.9811 4.66655 19.9961 4.90246C20.011 5.13838 19.9282 5.37069 19.7646 5.55191C19.601 5.73313 19.369 5.8496 19.1159 5.87751L18.9989 5.884H0.998892C0.744012 5.88374 0.49886 5.79325 0.313524 5.63102C0.128188 5.46879 0.0166571 5.24706 0.00172003 5.01114C-0.0132171 4.77522 0.0695667 4.54292 0.233157 4.3617C0.396747 4.18047 0.628796 4.064 0.881891 4.03609L0.998892 4.0296H18.9989H0.998892ZM0.998892 0.320801H18.9989C19.2538 0.321063 19.4989 0.411554 19.6842 0.573786C19.8696 0.736017 19.9811 0.957744 19.9961 1.19366C20.011 1.42958 19.9282 1.66188 19.7646 1.84311C19.601 2.02433 19.369 2.1408 19.1159 2.16871L18.9989 2.1752H0.998892C0.744012 2.17494 0.49886 2.08445 0.313524 1.92222C0.128188 1.75998 0.0166571 1.53826 0.00172003 1.30234C-0.0132171 1.06642 0.0695667 0.834118 0.233157 0.652894C0.396747 0.47167 0.628796 0.355203 0.881891 0.327291L0.998892 0.320801H18.9989H0.998892Z" fill="#6366F1"/>
</svg>
