<svg width="22" height="22" viewBox="0 0 22 22" fill="none" xmlns="http://www.w3.org/2000/svg">
<path d="M15.6754 3.72304L18.1672 6.11715L15.6754 3.72304ZM17.2778 1.61391L10.5401 8.09056C10.1919 8.42474 9.95451 8.8505 9.85771 9.31419L9.23535 12.3088L12.3507 11.7094C12.833 11.6167 13.2754 11.3894 13.6236 11.0546L20.3614 4.57799C20.5638 4.38337 20.7245 4.15232 20.834 3.89803C20.9436 3.64374 21 3.37119 21 3.09595C21 2.82071 20.9436 2.54817 20.834 2.29388C20.7245 2.03959 20.5638 1.80854 20.3614 1.61391C20.1589 1.41929 19.9185 1.2649 19.654 1.15957C19.3895 1.05424 19.1059 1.00003 18.8196 1.00003C18.5333 1.00003 18.2497 1.05424 17.9852 1.15957C17.7206 1.2649 17.4803 1.41929 17.2778 1.61391V1.61391Z" stroke="#6366F1" stroke-width="2" stroke-linecap="round" stroke-linejoin="round"/>
<path d="M18.6472 14.5706V17.9633C18.6472 18.5632 18.3993 19.1385 17.958 19.5626C17.5168 19.9868 16.9183 20.2251 16.2943 20.2251H3.35296C2.72892 20.2251 2.13043 19.9868 1.68917 19.5626C1.2479 19.1385 1 18.5632 1 17.9633V5.5234C1 4.92353 1.2479 4.34823 1.68917 3.92406C2.13043 3.49989 2.72892 3.2616 3.35296 3.2616H6.88241" stroke="#6366F1" stroke-width="2" stroke-linecap="round" stroke-linejoin="round"/>
</svg>
