<svg width="23" height="24" viewBox="0 0 23 24" fill="none" xmlns="http://www.w3.org/2000/svg">
<path d="M7.09912 17.0745C7.191 17.1435 7.29558 17.1937 7.40688 17.2223C7.51818 17.2509 7.63403 17.2573 7.7478 17.2412C7.86158 17.225 7.97105 17.1866 8.06997 17.1281C8.1689 17.0696 8.25533 16.9922 8.32434 16.9003C8.8542 16.1939 9.54124 15.6205 10.3311 15.2256C11.1209 14.8307 11.9918 14.6251 12.8749 14.6251C13.7579 14.6251 14.6289 14.8306 15.4187 15.2255C16.2086 15.6204 16.8957 16.1937 17.4255 16.9001C17.4942 16.9929 17.5806 17.0711 17.6796 17.1304C17.7787 17.1896 17.8885 17.2287 18.0027 17.2453C18.1169 17.262 18.2333 17.2558 18.3451 17.2273C18.457 17.1988 18.5621 17.1484 18.6544 17.0791C18.7466 17.0097 18.8243 16.9228 18.8829 16.8234C18.9414 16.7239 18.9797 16.6138 18.9955 16.4995C19.0114 16.3852 19.0044 16.2688 18.9751 16.1572C18.9458 16.0455 18.8946 15.9408 18.8247 15.849C18.0492 14.81 17.0149 13.9924 15.825 13.4778C16.4765 12.8829 16.9329 12.105 17.1344 11.2461C17.3359 10.3872 17.273 9.4874 16.9539 8.66488C16.6349 7.84236 16.0747 7.1355 15.3468 6.63706C14.6188 6.13863 13.7572 5.87191 12.875 5.87191C11.9928 5.87191 11.1312 6.13863 10.4032 6.63706C9.67531 7.1355 9.11507 7.84236 8.79605 8.66488C8.47704 9.4874 8.41414 10.3872 8.61562 11.2461C8.8171 12.105 9.27354 12.8829 9.92505 13.4778C8.73496 13.9924 7.7006 14.8101 6.92511 15.8492C6.85608 15.9411 6.80582 16.0457 6.77721 16.157C6.74859 16.2683 6.74218 16.3841 6.75834 16.4979C6.7745 16.6117 6.81291 16.7211 6.87139 16.8201C6.92986 16.919 7.00724 17.0054 7.09912 17.0745ZM10.25 10.25C10.25 9.73082 10.404 9.22331 10.6924 8.79163C10.9808 8.35995 11.3908 8.0235 11.8705 7.82482C12.3501 7.62614 12.8779 7.57415 13.3871 7.67544C13.8963 7.77672 14.364 8.02673 14.7312 8.39384C15.0983 8.76096 15.3483 9.22869 15.4496 9.73789C15.5508 10.2471 15.4989 10.7749 15.3002 11.2545C15.1015 11.7342 14.765 12.1442 14.3334 12.4326C13.9017 12.721 13.3942 12.875 12.875 12.875C12.179 12.8742 11.5118 12.5974 11.0197 12.1053C10.5276 11.6132 10.2508 10.946 10.25 10.25ZM20.75 0.625H5C4.53603 0.625521 4.09121 0.810063 3.76314 1.13814C3.43506 1.46621 3.25052 1.91103 3.25 2.375V4.5625H1.5C1.26794 4.5625 1.04538 4.65469 0.881282 4.81878C0.717187 4.98288 0.625 5.20544 0.625 5.4375C0.625 5.66956 0.717187 5.89212 0.881282 6.05622C1.04538 6.22031 1.26794 6.3125 1.5 6.3125H3.25V8.9375H1.5C1.26794 8.9375 1.04538 9.02969 0.881282 9.19378C0.717187 9.35788 0.625 9.58044 0.625 9.8125C0.625 10.0446 0.717187 10.2671 0.881282 10.4312C1.04538 10.5953 1.26794 10.6875 1.5 10.6875H3.25V13.3125H1.5C1.26794 13.3125 1.04538 13.4047 0.881282 13.5688C0.717187 13.7329 0.625 13.9554 0.625 14.1875C0.625 14.4196 0.717187 14.6421 0.881282 14.8062C1.04538 14.9703 1.26794 15.0625 1.5 15.0625H3.25V17.6875H1.5C1.26794 17.6875 1.04538 17.7797 0.881282 17.9438C0.717187 18.1079 0.625 18.3304 0.625 18.5625C0.625 18.7946 0.717187 19.0171 0.881282 19.1812C1.04538 19.3453 1.26794 19.4375 1.5 19.4375H3.25V21.625C3.25052 22.089 3.43506 22.5338 3.76314 22.8619C4.09121 23.1899 4.53603 23.3745 5 23.375H20.75C21.214 23.3745 21.6588 23.1899 21.9869 22.8619C22.3149 22.5338 22.4995 22.089 22.5 21.625V2.375C22.4995 1.91103 22.3149 1.46621 21.9869 1.13814C21.6588 0.810063 21.214 0.625521 20.75 0.625ZM20.75 21.625L5 21.6261V2.375H20.75V21.625Z" fill="#6366F1"/>
</svg>
