<svg width="24" height="24" viewBox="0 0 24 24" fill="none" xmlns="http://www.w3.org/2000/svg">
<path d="M10.0001 16H14.0001C14.255 16.0003 14.5001 16.0979 14.6855 16.2728C14.8708 16.4478 14.9823 16.687 14.9973 16.9414C15.0122 17.1958 14.9294 17.4464 14.7658 17.6418C14.6023 17.8373 14.3702 17.9629 14.1171 17.993L14.0001 18H10.0001C9.74523 17.9997 9.50008 17.9021 9.31474 17.7272C9.12941 17.5522 9.01788 17.313 9.00294 17.0586C8.988 16.8042 9.07079 16.5536 9.23438 16.3582C9.39797 16.1627 9.63002 16.0371 9.88311 16.007L10.0001 16H14.0001H10.0001ZM8.00011 11H16.0001C16.255 11.0003 16.5001 11.0979 16.6855 11.2728C16.8708 11.4478 16.9823 11.687 16.9973 11.9414C17.0122 12.1958 16.9294 12.4464 16.7658 12.6418C16.6023 12.8373 16.3702 12.9629 16.1171 12.993L16.0001 13H8.00011C7.74523 12.9997 7.50008 12.9021 7.31474 12.7272C7.12941 12.5522 7.01788 12.313 7.00294 12.0586C6.988 11.8042 7.07079 11.5536 7.23438 11.3582C7.39797 11.1627 7.63002 11.0371 7.88311 11.007L8.00011 11H16.0001H8.00011ZM5.00011 6H19.0001C19.255 6.00028 19.5001 6.09788 19.6855 6.27285C19.8708 6.44782 19.9823 6.68695 19.9973 6.94139C20.0122 7.19584 19.9294 7.44638 19.7658 7.64183C19.6023 7.83729 19.3702 7.9629 19.1171 7.993L19.0001 8H5.00011C4.74523 7.99972 4.50008 7.90212 4.31474 7.72715C4.12941 7.55218 4.01788 7.31305 4.00294 7.05861C3.988 6.80416 4.07079 6.55362 4.23438 6.35817C4.39797 6.16271 4.63002 6.0371 4.88311 6.007L5.00011 6H19.0001H5.00011Z" fill="black"/>
</svg>
