<svg
            width="30"
            height="30"
            viewBox="0 0 29 28"
            fill="none"
            xmlns="http://www.w3.org/2000/svg"
          >
            <path
              d="M13.09 17.59L14.5 19L19.5 14L14.5 9L13.09 10.41L15.67 13H6V15H15.67L13.09 17.59ZM22 5H8C7.46957 5 6.96086 5.21071 6.58579 5.58579C6.21071 5.96086 6 6.46957 6 7V11H8V7H22V21H8V17H6V21C6 21.5304 6.21071 22.0391 6.58579 22.4142C6.96086 22.7893 7.46957 23 8 23H22C23.1 23 24 22.1 24 21V7C24 5.9 23.1 5 22 5Z"
              fill="#6366F1"
            />
          </svg>