<svg width="38" height="39" viewBox="0 0 38 39" fill="none" xmlns="http://www.w3.org/2000/svg">
<path d="M36.4167 0.75H1.58333C1.16341 0.75 0.76068 0.947544 0.463748 1.29917C0.166815 1.65081 0 2.12772 0 2.625L0 36.375C0 36.8723 0.166815 37.3492 0.463748 37.7008C0.76068 38.0525 1.16341 38.25 1.58333 38.25H36.4167C36.8366 38.25 37.2393 38.0525 37.5363 37.7008C37.8332 37.3492 38 36.8723 38 36.375V2.625C38 2.12772 37.8332 1.65081 37.5363 1.29917C37.2393 0.947544 36.8366 0.75 36.4167 0.75ZM34.8333 34.5H31.6667V32.625H23.75V34.5H3.16667V4.5H34.8333V34.5ZM16.2925 15.2063C16.2925 14.3559 16.5778 13.5404 17.0855 12.9391C17.5933 12.3378 18.2819 12 19 12C20.5042 12 21.7075 13.4438 21.7075 15.2063C21.7075 16.9875 20.5042 18.4313 19 18.4313C17.4958 18.4313 16.2925 16.9875 16.2925 15.2063ZM9.04083 18.1688C9.04083 16.8375 9.95917 15.75 11.0833 15.75C11.625 15.75 12.1446 16.0048 12.5276 16.4584C12.9106 16.912 13.1258 17.5273 13.1258 18.1688C13.1258 19.5 12.2075 20.5688 11.0833 20.5688C9.95917 20.5688 9.04083 19.5 9.04083 18.1688ZM24.8742 18.1688C24.8742 17.5273 25.0894 16.912 25.4724 16.4584C25.8554 16.0048 26.375 15.75 26.9167 15.75C27.4584 15.75 27.9779 16.0048 28.3609 16.4584C28.744 16.912 28.9592 17.5273 28.9592 18.1688C28.9592 19.5 28.0408 20.5688 26.9167 20.5688C25.7925 20.5688 24.8742 19.5 24.8742 18.1688ZM31.6667 25.3875V27H6.33333V25.3875C6.33333 23.625 8.7875 22.1813 11.0833 22.1813C11.9542 22.1813 12.8408 22.3875 13.6167 22.7438C14.8042 21.45 16.9417 20.5688 19 20.5688C21.0583 20.5688 23.1958 21.45 24.3833 22.7438C25.1592 22.3875 26.0458 22.1813 26.9167 22.1813C29.2125 22.1813 31.6667 23.625 31.6667 25.3875Z" fill="#6366F1"/>
</svg>
