<svg
              width="24"
              height="24"
              viewBox="0 0 24 24"
              fill="none"
              xmlns="http://www.w3.org/2000/svg"
            >
              <path
                d="M5.69377 11.9999L2.29877 3.27189C2.06277 2.66489 2.65477 2.08389 3.24077 2.28989L3.33377 2.32989L21.3338 11.3299C21.4496 11.3879 21.5485 11.475 21.6207 11.5826C21.6929 11.6902 21.7359 11.8147 21.7457 11.9439C21.7555 12.0731 21.7316 12.2027 21.6764 12.3199C21.6212 12.4372 21.5366 12.5381 21.4308 12.6129L21.3338 12.6709L3.33377 21.6709C2.75077 21.9619 2.11677 21.4269 2.26877 20.8239L2.29877 20.7279L5.69377 11.9999L2.29877 3.27189L5.69377 11.9999ZM4.40177 4.53989L7.01177 11.2499H13.6388C13.82 11.2499 13.9951 11.3155 14.1317 11.4347C14.2683 11.5538 14.3571 11.7183 14.3818 11.8979L14.3888 11.9999C14.3887 12.1813 14.323 12.3565 14.2036 12.4931C14.0843 12.6297 13.9195 12.7185 13.7398 12.7429L13.6388 12.7499H7.00977L4.40077 19.4599L19.3218 11.9999L4.40077 4.53989H4.40177Z"
                fill="#6366F1"
              />
            </svg>