<svg width="26" height="26" viewBox="0 0 26 26" fill="none" xmlns="http://www.w3.org/2000/svg">
<path d="M12.5938 3.25C7.43387 3.25 3.25 7.43387 3.25 12.5938C3.25 17.7536 7.43387 21.9375 12.5938 21.9375C17.7536 21.9375 21.9375 17.7536 21.9375 12.5938C21.9375 7.43387 17.7536 3.25 12.5938 3.25Z" stroke="#6366F1" stroke-miterlimit="10"/>
<path d="M11.1719 11.1719H12.7969V17.0625" stroke="#6366F1" stroke-linecap="round" stroke-linejoin="round"/>
<path d="M10.5625 17.2656H15.0312" stroke="#6366F1" stroke-miterlimit="10" stroke-linecap="round"/>
<path d="M11.8689 6.83707C12.0835 6.69371 12.3357 6.61719 12.5938 6.61719C12.9398 6.61719 13.2716 6.75464 13.5163 6.99932C13.761 7.244 13.8984 7.57585 13.8984 7.92187C13.8984 8.17992 13.8219 8.43217 13.6786 8.64672C13.5352 8.86127 13.3314 9.0285 13.093 9.12725C12.8546 9.226 12.5923 9.25183 12.3392 9.20149C12.0861 9.15115 11.8537 9.02689 11.6712 8.84443C11.4887 8.66196 11.3645 8.42949 11.3141 8.17641C11.2638 7.92332 11.2896 7.66099 11.3884 7.42259C11.4871 7.18419 11.6544 6.98043 11.8689 6.83707Z" fill="#6366F1" stroke="#6366F1" stroke-width="0.03125"/>
</svg>
