<svg width="20" height="20" viewBox="0 0 20 20" fill="none" xmlns="http://www.w3.org/2000/svg">
<path d="M11.5443 8.45621C10.7252 7.63744 9.61445 7.17749 8.4563 7.17749C7.29815 7.17749 6.18741 7.63744 5.3683 8.45621L2.2793 11.5442C1.46018 12.3633 1 13.4743 1 14.6327C1 15.7911 1.46018 16.9021 2.2793 17.7212C3.09842 18.5403 4.20939 19.0005 5.3678 19.0005C6.52621 19.0005 7.63718 18.5403 8.4563 17.7212L10.0003 16.1772" stroke="#6366F1" stroke-width="2" stroke-linecap="round" stroke-linejoin="round"/>
<path d="M8.45605 11.5443C9.27516 12.3631 10.3859 12.823 11.5441 12.823C12.7022 12.823 13.8129 12.3631 14.6321 11.5443L17.7211 8.4563C18.5402 7.63718 19.0004 6.52621 19.0004 5.3678C19.0004 4.20939 18.5402 3.09842 17.7211 2.2793C16.9019 1.46018 15.791 1 14.6326 1C13.4741 1 12.3632 1.46018 11.5441 2.2793L10.0001 3.8233" stroke="#6366F1" stroke-width="2" stroke-linecap="round" stroke-linejoin="round"/>
</svg>
