<?xml version="1.0" encoding="utf-8"?>
<!-- Generator: Adobe Illustrator 23.0.0, SVG Export Plug-In . SVG Version: 6.00 Build 0)  -->
<svg version="1.1" id="Layer_1" xmlns="http://www.w3.org/2000/svg" xmlns:xlink="http://www.w3.org/1999/xlink" x="0px" y="0px"
	 viewBox="0 0 500 500" style="enable-background:new 0 0 500 500;" xml:space="preserve">
<style type="text/css">
	.st0{fill:#4F46E5;}
</style>
<g>
	<path class="st0" d="M369.7,406c-8.9,0-14.7,3.5-21.4,12.9c-0.2,0.3-1.7-1.1-3.3-3.1c-1.7-2-5.8-5-9.2-6.7
		c-3.4-1.7-6.7-3.1-7.5-3.1c-1.1,0-1.3,6.4-1.3,34.9c0,19.2,0.3,35.6,0.6,36.5c0.5,1.3,2.5,1.6,11.3,1.6c7,0,11.1-0.4,11.9-1.2
		s1.2-6.7,1.2-19.7c0-20.5,0.7-23.4,6.3-27.5c2.4-1.7,4.2-2.1,10.5-2c4.8,0.1,8-0.3,8.4-1c0.4-0.6,0.8-5,0.8-9.8
		C378,407.2,377.1,406,369.7,406z"/>
	<path class="st0" d="M449.5,457h-20.4l11.5-14.8c12.9-16.5,18.9-27.4,20.5-37c2.4-15.5-4.4-28.3-18.3-34.7c-4.2-1.9-7.9-2.7-14-3
		c-17.6-1-31.1,6.5-38,21.1c-3.4,7.4-4.8,16.2-2.7,17.5c1.7,1,19.9,1.2,21.5,0.1c0.6-0.4,1.9-3.4,3-6.6c2.4-7.5,5.5-10,12.2-9.9
		c6,0.1,8.7,1.4,10.7,5.3c4.4,8.5,0.9,15-27.7,51.5c-12.9,16.5-23.8,30.6-24.2,31.3c-0.7,1.1,5.2,1.3,32.6,1l33.3-0.3l5.7-2.8
		c3.1-1.5,7.1-4.4,8.9-6.4c3-3.5,5.9-9,5.9-11.3C470,457.4,462.9,457,449.5,457z"/>
	<path class="st0" d="M178.7,294c-0.6,0.1-28.9,30.1-28.6,30.3c0.2,0.1,2.6,1.3,5.2,2.7c5.6,2.9,13.9,11.2,16.4,16.4
		c0.9,2,1.9,3.6,2.2,3.6c0.4,0,7-6.4,14.9-14.3l14.2-14.2l-12.1-12.3C184.3,299.5,178.8,294,178.7,294z"/>
	<path class="st0" d="M147,336.1c-6.8-3.1-15-2.8-22.5,0.8c-5.2,2.5-12.3,9.2-52.7,49.7c-35.2,35.4-47.2,48-48.7,51.4
		c-3.1,6.8-2.9,17.1,0.5,23.8c4.7,9.5,14.4,15.4,25,15.4c11.6,0.1,11.2,0.4,63.3-51.5c52.3-52.2,52.1-51.9,52.1-63.7
		C164,350.8,157.4,340.8,147,336.1z"/>
	<path class="st0" d="M390.5,32c-13.8-6.8-23.4-10.1-39.5-13.7c-9.6-2.1-14.6-2.6-30.5-2.8c-20.8-0.3-19.8-0.4-37.1,3
		c-14.8,3-26.4,7-40.8,14.2c-16.4,8.1-28.3,16.9-43.2,31.7c-23.6,23.7-37.3,48.3-45,81.1c-2.7,11.3-2.9,13.3-2.8,35
		c0,20.1,0.2,24.3,2.2,33.2c9.8,45,34.6,81.5,72.2,106.1c19,12.5,39.4,20.7,61.5,24.8c15.3,2.9,46.1,2.7,61.3-0.4
		c44.8-9,82-34,107.5-72.2c20.3-30.4,28.7-63,26.5-102.5C479.7,111.8,443.5,57.9,390.5,32z M448.9,229.2
		c-12.8,34.8-40.6,64.7-73.8,79.3c-18.9,8.3-32.4,11.4-52.6,12.2c-18.1,0.7-31.6-1.1-47.9-6.4C206.5,292.4,165.8,222.9,180,153
		c5.4-26.4,17.2-48.7,36.2-68.6c22.1-23,51.5-38.1,82.3-42.3c10.8-1.5,36.5-0.5,47,1.7c55,11.8,97.9,54.8,109,109
		C459.6,177.9,457.6,205.6,448.9,229.2z"/>
	<path class="st0" d="M267.6,174.9l36.7-21.4l36.8-21.5l4.1,2.6c17,10.8,37.4,5.2,47-12.8c3.4-6.3,3.3-20.2-0.2-27.3
		c-3.2-6.4-8.9-12.1-15.3-15.1c-4.2-1.9-6.7-2.4-13.2-2.3c-11.9,0.1-16.9,2.2-24,10c-5.8,6.4-7.9,12.1-8,21.2l-0.1,7.7l-36.8,21.5
		L257.8,159l-4.6-3c-6.4-4.2-10.7-5.3-19.3-4.8c-11.8,0.6-20.3,5.9-26.6,16.6c-2.6,4.3-2.8,5.6-2.8,14.7c0,11.2,1.4,15.1,8.1,22.5
		c5.6,6.2,13.3,9.4,22.4,9.5c8,0,12-1.2,18.5-5.5l4.1-2.6l37.4,21.9l37.5,21.9v7.6c0.1,9.6,3,15.7,10.6,22.6
		c14.7,13.3,38.8,8.5,48-9.6c3.1-5.9,3.7-16.8,1.4-23.7c-4.1-12.3-14.3-20-28-20.9c-6.4-0.4-8-0.1-13.1,2.2
		c-3.2,1.5-6.6,3.4-7.5,4.2c-1.4,1.3-5.6-0.9-39-20.3l-37.5-21.8l0.1-7.8L267.6,174.9z"/>
</g>
</svg>
