<?xml version="1.0" standalone="no"?>
<!DOCTYPE svg PUBLIC "-//W3C//DTD SVG 20010904//EN"
 "http://www.w3.org/TR/2001/REC-SVG-20010904/DTD/svg10.dtd">
<svg version="1.0" xmlns="http://www.w3.org/2000/svg"
 width="2084.000000pt" height="2084.000000pt" viewBox="0 0 2084.000000 2084.000000"
 preserveAspectRatio="xMidYMid meet">

<g transform="translate(0.000000,2084.000000) scale(0.100000,-0.100000)"
fill="#000000" stroke="none">
<path d="M0 12410 c0 -4614 2 -8390 5 -8390 3 0 738 225 1633 500 895 276
1635 503 1645 506 11 3 17 15 17 33 0 38 44 121 88 166 80 81 203 109 272 63
59 -41 75 -72 75 -146 -1 -82 -32 -148 -98 -209 -59 -54 -98 -74 -161 -80 -82
-7 -152 39 -179 120 -2 6 -2764 -835 -3265 -994 l-32 -11 0 -1984 0 -1984
10415 0 10415 0 0 1251 c0 1187 -1 1251 -17 1244 -10 -3 -692 -214 -1515 -467
-1392 -429 -1498 -463 -1498 -483 0 -34 -58 -142 -92 -170 -112 -95 -255 -90
-302 9 -18 39 -20 117 -3 163 34 93 132 175 224 189 57 8 129 -27 154 -74 10
-19 20 -36 23 -39 3 -4 685 203 1516 458 l1510 464 0 1084 0 1083 -24 -6 c-22
-5 -2335 -717 -6406 -1971 -1352 -416 -4923 -1514 -4981 -1531 -11 -3 -19 -21
-23 -49 -18 -115 -121 -247 -239 -305 -128 -63 -252 -40 -322 58 -28 41 -30
49 -30 136 0 84 3 97 34 160 41 84 119 164 197 202 51 25 71 29 145 29 77 0
90 -3 126 -28 40 -28 75 -80 87 -130 6 -24 11 -28 29 -23 12 3 555 169 1207
370 652 200 2360 725 3795 1166 4930 1516 6395 1967 6400 1972 3 3 4 1980 3
4395 l-3 4390 -1532 -471 c-1397 -429 -1533 -473 -1533 -492 0 -39 -60 -143
-104 -179 -142 -116 -306 -65 -306 94 0 101 78 215 176 256 88 37 180 8 218
-68 10 -21 23 -36 30 -34 6 2 696 215 1534 473 l1522 468 0 3603 0 3603
-10415 0 -10415 0 0 -8390z m12175 6268 c-69 -145 -67 -215 10 -369 65 -128
79 -190 72 -324 -3 -79 -12 -132 -30 -187 -14 -43 -23 -78 -21 -78 7 0 83 158
103 214 11 31 25 82 31 114 14 65 16 68 123 165 l78 70 110 -109 c60 -60 109
-111 109 -115 0 -7 -537 -513 -549 -517 -5 -2 -133 115 -285 260 l-276 262 28
29 c15 16 66 65 115 109 l87 81 55 -52 c29 -28 56 -51 60 -51 3 0 -6 23 -21
52 -15 30 -28 76 -31 109 -5 50 -1 66 26 124 36 77 110 174 183 239 27 26 52
46 54 46 1 0 -12 -33 -31 -72z m-4201 6 c32 -22 42 -24 63 -15 41 19 114 14
139 -10 l22 -21 78 33 c58 24 96 32 141 33 57 1 64 -1 97 -33 l36 -34 78 16
c96 21 167 22 223 2 86 -31 117 -91 60 -115 -72 -29 -75 -63 -15 -151 104
-153 123 -309 49 -398 -12 -14 -28 -50 -35 -79 -6 -28 -16 -54 -21 -57 -4 -3
-22 -35 -39 -71 -18 -36 -57 -93 -90 -128 -235 -251 -633 -190 -786 120 -36
72 -39 85 -42 180 -5 126 17 210 79 303 l41 61 -53 98 c-28 53 -65 116 -80
140 -22 32 -29 55 -29 91 0 26 3 51 7 54 13 13 39 7 77 -19z m2609 -59 c90
-31 154 -73 225 -150 71 -75 115 -159 138 -262 66 -297 -122 -592 -426 -669
-83 -21 -220 -14 -304 15 -165 58 -295 188 -354 355 -21 58 -25 90 -25 176 0
58 5 125 12 150 60 210 244 378 450 410 82 13 206 2 284 -25z m4667 -1669 l0
-503 -92 -12 c-51 -7 -101 -15 -110 -17 -17 -5 -18 18 -18 390 0 218 -3 396
-7 396 -5 0 -48 -7 -98 -14 -49 -8 -91 -12 -93 -11 -3 2 97 165 140 229 6 8
194 42 256 45 l22 1 0 -504z m-677 419 c55 -23 112 -79 135 -133 66 -153 19
-327 -146 -545 -45 -59 -76 -107 -69 -107 6 0 55 7 107 15 155 24 140 35 140
-110 0 -91 -3 -127 -12 -130 -14 -5 -644 -95 -665 -95 -10 0 -13 24 -13 86 l0
85 159 193 c192 233 228 282 252 346 24 64 24 91 -2 124 -49 63 -159 3 -159
-87 0 -22 -5 -24 -97 -36 -54 -7 -110 -15 -124 -18 l-26 -5 -6 -191 c-6 -205
-14 -252 -53 -332 -126 -252 -477 -289 -588 -62 -58 117 -61 512 -6 660 55
148 200 247 359 247 146 0 241 -81 276 -235 l12 -50 6 55 c13 110 99 235 202
296 88 51 233 65 318 29z m-1368 -199 c91 -43 143 -126 153 -242 11 -141 -65
-304 -249 -530 -5 -7 35 -4 114 7 67 10 125 19 130 19 4 0 7 -58 7 -130 0 -71
-3 -130 -7 -130 -5 -1 -158 -22 -341 -49 -183 -26 -335 -45 -336 -42 -2 3 -1
47 3 96 l6 90 134 160 c230 276 281 355 281 430 0 51 -39 90 -83 81 -42 -9
-75 -42 -89 -90 -6 -23 -12 -42 -13 -43 -2 -4 -203 -33 -226 -33 -21 0 -21 3
-15 68 16 160 138 309 285 348 80 22 189 17 246 -10z m-4193 -413 c38 -34 13
-109 -78 -233 -57 -78 -313 -341 -403 -413 -35 -29 -97 -96 -139 -152 -41 -55
-80 -106 -86 -114 -6 -8 27 15 74 52 125 99 204 118 250 60 40 -51 19 -125
-88 -312 -40 -68 -74 -139 -78 -158 -12 -66 35 -82 103 -35 85 57 125 127 132
232 l6 75 35 -2 c82 -4 105 -100 50 -211 -91 -181 -329 -276 -400 -160 -38 63
-24 125 79 346 56 119 70 162 56 162 -4 0 -20 -7 -38 -16 -90 -46 -271 -222
-441 -427 -77 -93 -102 -118 -119 -115 -30 4 -33 41 -8 84 29 50 26 51 -18 11
-80 -72 -149 -87 -191 -42 -39 41 -25 101 63 281 63 127 73 152 54 143 -45
-24 -156 -126 -327 -300 -155 -158 -179 -179 -207 -179 -44 0 -59 28 -42 78
10 30 105 196 178 312 12 19 4 15 -34 -17 -62 -50 -123 -117 -195 -212 -30
-40 -96 -112 -147 -161 -137 -131 -203 -149 -253 -68 -22 36 -25 75 -10 127 8
30 -1 23 -88 -66 -107 -111 -145 -136 -200 -131 -31 3 -40 9 -55 40 -17 35
-17 42 -3 96 8 32 44 121 80 197 37 76 64 140 62 143 -3 2 -25 -7 -49 -22 -65
-37 -192 -177 -337 -371 -127 -169 -206 -255 -235 -255 -8 0 -15 7 -15 15 0
35 244 457 391 676 113 169 225 306 378 463 142 145 207 196 251 196 64 0 48
-24 -139 -210 -152 -151 -301 -326 -438 -515 -121 -168 -121 -169 15 -34 139
137 192 170 245 150 30 -12 43 -46 32 -88 -3 -16 -35 -92 -71 -171 -69 -152
-88 -212 -63 -197 34 21 220 189 284 257 39 40 96 111 129 156 32 45 68 89 79
97 33 23 74 19 93 -10 19 -29 25 -17 -104 -205 -88 -128 -146 -238 -140 -267
4 -21 133 95 369 329 185 185 235 212 267 145 12 -25 11 -34 -17 -90 -16 -34
-47 -91 -67 -127 l-38 -65 185 180 c219 215 287 257 341 208 37 -33 27 -73
-86 -331 -20 -46 -36 -88 -36 -93 0 -17 67 35 191 147 98 89 134 129 201 228
162 241 363 502 539 701 117 132 154 169 194 189 38 20 54 20 77 -1z m3197
-260 c-17 -32 -38 -64 -45 -72 -12 -13 -104 -33 -104 -22 0 2 18 35 40 72 40
68 50 75 113 78 l28 1 -32 -57z m-259 -25 c-17 -29 -36 -63 -42 -74 -10 -21
-46 -34 -94 -34 -22 0 -22 2 17 70 36 62 44 70 77 75 37 6 65 12 70 14 1 0
-11 -23 -28 -51z m-279 -60 c-39 -71 -41 -73 -87 -81 -25 -4 -49 -6 -51 -3 -3
2 14 36 36 75 38 64 44 70 79 74 20 2 43 4 50 5 8 1 -2 -27 -27 -70z m-216
-25 c-21 -38 -40 -71 -44 -75 -8 -9 -2170 -313 -2177 -305 -6 5 66 137 76 137
3 1 491 70 1085 154 594 85 1084 154 1088 155 5 0 -8 -29 -28 -66z m-4429
-121 c6 -4 25 -29 44 -57 18 -27 67 -85 108 -128 66 -68 73 -80 61 -93 -13
-12 -21 -12 -64 1 -71 21 -155 74 -183 115 -20 29 -23 43 -18 82 5 48 21 88
34 88 4 0 12 -4 18 -8z m-2494 -101 c110 -42 156 -130 145 -275 -25 -331 -386
-753 -1107 -1298 -247 -186 -393 -289 -560 -395 -243 -154 -540 -313 -585
-313 -42 0 -32 49 23 115 55 66 149 128 328 215 409 200 1156 752 1435 1062
261 288 358 456 362 621 2 78 -15 121 -62 149 -32 20 -49 23 -146 22 -90 0
-133 -6 -235 -32 -289 -75 -646 -253 -1034 -517 -183 -124 -226 -138 -226 -77
0 46 51 114 134 176 96 72 279 189 411 264 250 141 606 274 808 302 100 14
244 5 309 -19z m12352 -342 c-97 -160 -177 -297 -177 -303 0 -6 84 -128 187
-270 102 -143 185 -260 183 -262 -4 -4 -284 -44 -307 -44 -10 0 -63 64 -124
150 l-108 150 -112 -182 -111 -183 -145 -22 c-80 -12 -152 -22 -162 -22 -11
-1 35 84 155 282 94 155 180 298 191 318 l20 36 -177 247 c-97 135 -177 250
-177 254 0 12 311 55 320 45 4 -4 49 -65 100 -135 50 -71 95 -128 98 -128 4 0
52 74 107 164 l100 164 145 22 c80 12 150 23 155 24 6 2 11 -1 13 -5 2 -5 -76
-140 -174 -300z m-11259 161 c25 -28 12 -82 -32 -131 -59 -66 -113 -62 -113 8
0 43 21 83 60 117 38 31 61 33 85 6z m10353 -582 l-3 -573 -80 -11 c-44 -6
-101 -14 -127 -17 l-48 -7 -2 208 -3 208 -195 -27 c-107 -16 -196 -28 -197
-29 -2 0 -4 -93 -5 -207 l-3 -208 -70 -11 c-38 -7 -96 -15 -127 -18 l-58 -7 0
570 0 571 23 4 c12 3 58 10 102 16 44 6 92 13 108 16 l27 6 0 -236 c0 -182 3
-236 13 -236 6 0 96 12 200 27 l187 26 0 237 0 237 108 15 c59 8 117 16 130
17 l22 1 -2 -572z m-10800 442 c0 -74 -4 -123 -11 -127 -15 -9 -57 43 -57 71
0 35 -9 37 -49 11 -81 -51 -274 -155 -287 -155 -32 0 -26 32 12 71 83 85 329
249 375 249 14 0 17 -15 17 -120z m9790 -582 l-3 -573 -110 -17 c-60 -9 -118
-17 -127 -17 -17 -1 -18 20 -18 292 l-1 292 -29 -70 c-17 -38 -74 -178 -127
-310 l-98 -240 -75 -12 c-41 -7 -77 -9 -81 -5 -4 4 -60 125 -125 270 l-119
263 -5 -288 -5 -288 -85 -12 c-47 -6 -104 -15 -128 -18 l-42 -6 2 573 3 573
120 17 c66 10 125 16 131 14 5 -2 82 -160 169 -350 87 -191 162 -343 166 -339
4 5 78 181 165 393 86 212 159 387 161 390 3 3 196 33 251 39 10 1 12 -116 10
-571z m-11254 484 c-1 -21 -30 -78 -81 -159 -77 -124 -207 -343 -233 -392
l-12 -24 54 6 c71 9 149 -14 178 -50 19 -24 19 -27 4 -45 -13 -14 -31 -18 -78
-18 -34 0 -99 -5 -145 -12 -77 -10 -85 -14 -102 -42 -11 -17 -92 -175 -180
-351 -88 -176 -168 -326 -177 -332 -23 -18 -40 -16 -52 7 -8 15 -5 34 10 81
23 68 137 324 205 459 70 141 74 134 -57 93 -143 -45 -176 -50 -184 -30 -3 9
-1 24 5 35 14 26 174 104 283 139 l85 27 46 86 c25 47 79 141 121 210 67 111
73 125 55 128 -39 7 -32 31 26 97 59 67 125 119 160 127 11 2 31 1 45 -2 20
-6 25 -13 24 -38z m7815 -139 c-51 -76 -92 -139 -93 -140 -3 -4 -139 -23 -142
-20 -3 3 110 250 122 265 2 4 156 29 187 31 13 1 -7 -36 -74 -136z m-6051 22
c1 -11 -16 -44 -40 -75 -145 -190 -263 -428 -243 -489 18 -57 104 -21 219 91
44 43 85 78 93 78 19 0 16 -48 -8 -99 -35 -78 -83 -127 -164 -167 -93 -46
-149 -45 -199 5 -28 28 -31 38 -34 103 -2 59 3 89 26 156 23 67 25 81 13 78
-9 -3 -28 -8 -43 -12 -21 -4 -36 -21 -58 -63 -143 -268 -398 -377 -494 -211
-28 48 -27 154 2 235 62 169 235 328 340 312 35 -6 55 -23 49 -42 -2 -5 -33
-27 -70 -48 -36 -21 -88 -62 -114 -91 -106 -115 -165 -294 -114 -345 58 -58
174 17 290 187 l42 63 -30 28 c-39 36 -48 84 -26 139 29 72 92 108 150 86 25
-10 45 -59 45 -114 0 -55 5 -58 58 -39 22 8 40 27 63 67 38 68 113 167 137
182 9 5 37 9 62 7 36 -2 46 -6 48 -22z m7234 -682 c130 -296 235 -539 234
-540 -1 -2 -51 -10 -112 -18 -60 -9 -119 -18 -132 -21 -20 -4 -26 3 -49 56
-32 72 -7 70 -308 27 l-220 -32 -26 -65 c-15 -35 -36 -68 -46 -72 -21 -8 -254
-41 -257 -36 -3 4 470 1197 477 1205 4 4 116 22 192 32 6 0 117 -241 247 -536z
m-1153 392 c174 -41 308 -175 356 -356 19 -70 19 -217 0 -299 -9 -36 -34 -103
-57 -150 -58 -117 -188 -250 -298 -303 -227 -111 -444 -84 -600 74 -278 281
-142 813 253 995 113 51 235 65 346 39z m-779 -657 c0 -310 -4 -568 -8 -574
-5 -9 -211 -44 -255 -44 -4 0 -7 92 -7 205 0 195 -1 205 -19 205 -11 0 -96
-11 -191 -25 -95 -14 -174 -25 -176 -25 -2 0 -5 -93 -6 -207 l-3 -208 -70 -12
c-38 -6 -98 -15 -132 -18 l-63 -7 0 570 0 571 33 6 c82 14 228 31 232 27 3 -3
5 -108 5 -234 0 -176 3 -228 13 -228 6 0 93 11 191 25 99 14 181 25 182 25 2
0 5 107 6 238 l3 237 115 16 c63 9 123 17 133 18 16 1 17 -32 17 -561z m2878
259 l3 -86 -33 -6 c-44 -7 -601 -85 -610 -85 -5 0 -8 40 -8 89 l0 89 88 12
c48 7 188 27 312 45 124 18 230 32 235 31 6 -2 11 -41 13 -89z m-4296 35 c46
-23 95 -52 111 -65 l27 -23 -71 -112 -70 -112 -44 30 c-80 55 -168 75 -266 59
-253 -41 -398 -329 -269 -532 106 -168 375 -146 551 46 l47 50 72 -96 72 -96
-33 -41 c-140 -174 -427 -283 -632 -241 -177 37 -324 179 -368 356 l-12 47
-22 -73 c-77 -264 -288 -455 -540 -490 -210 -29 -411 81 -500 273 -78 171 -72
344 22 537 37 78 59 108 131 181 72 72 102 95 172 128 99 47 163 62 264 62
218 0 405 -148 460 -362 l13 -53 12 55 c6 30 32 98 58 150 62 127 169 236 293
298 120 59 182 72 322 69 115 -3 118 -4 200 -45z m-4667 -126 c43 -31 8 -112
-63 -143 -70 -29 -100 42 -45 107 39 47 76 60 108 36z m2632 -662 c-3 -311 -8
-568 -10 -571 -8 -7 -246 -40 -252 -35 -3 3 -5 97 -5 210 l0 204 -22 -5 c-13
-3 -101 -16 -195 -28 l-173 -23 -1 -65 c-1 -36 -4 -131 -8 -211 l-6 -145 -115
-17 c-63 -9 -121 -17 -128 -17 -10 -1 -12 116 -10 572 l3 572 110 17 c61 9
120 17 133 17 l22 1 0 -235 0 -235 38 6 c20 3 107 15 192 28 l155 21 3 233 c2
191 5 234 17 238 22 9 175 32 219 33 l39 1 -6 -566z m-1329 -186 l-3 -573 -70
-12 c-38 -6 -95 -14 -126 -18 l-55 -7 -213 291 c-117 160 -217 294 -222 297
-5 3 -9 -133 -9 -324 l0 -329 -97 -12 c-54 -6 -110 -14 -125 -17 l-28 -6 0
574 0 574 117 16 c65 9 120 13 123 9 3 -4 104 -144 225 -310 l220 -302 3 340
c1 188 3 341 5 342 4 1 232 37 245 38 10 1 12 -116 10 -571z m-1050 -150 l-3
-573 -115 -17 c-63 -9 -123 -17 -133 -17 -16 -1 -17 31 -15 571 l3 573 110 16
c61 9 120 17 133 18 l22 1 -2 -572z m-298 403 l0 -129 -72 -10 c-40 -6 -112
-16 -160 -23 l-88 -12 0 -444 c0 -243 -3 -443 -7 -443 -5 0 -63 -9 -130 -19
l-123 -18 0 444 c0 244 -3 443 -7 443 -5 0 -66 -9 -138 -20 -197 -30 -176 -42
-173 107 l3 127 435 62 c239 34 441 62 448 63 9 1 12 -31 12 -128z m7535 -351
c165 -90 320 -173 345 -184 25 -12 72 -38 105 -58 73 -44 201 -105 235 -112
14 -3 42 -20 63 -38 20 -18 304 -178 630 -356 808 -441 849 -462 885 -462 20
0 39 -8 52 -22 12 -13 27 -30 35 -38 9 -8 151 -89 318 -181 l302 -165 3 -212
c1 -117 -1 -212 -5 -212 -3 0 -79 39 -167 86 -89 48 -195 105 -236 127 -264
142 -349 192 -384 225 -21 20 -81 101 -133 179 -52 78 -110 155 -129 171 -19
16 -146 89 -282 162 -136 73 -348 188 -472 255 -124 67 -270 146 -325 175 -55
29 -105 57 -111 62 -6 4 -19 6 -27 2 -9 -3 -41 1 -71 10 -45 13 -63 26 -98 67
-32 37 -70 64 -148 106 -303 163 -767 416 -777 425 -9 7 -13 42 -13 109 l0 99
53 -29 c28 -16 187 -102 352 -191z m-4195 -285 c38 -20 50 -43 50 -100 0 -39
-5 -52 -38 -87 -33 -35 -45 -41 -90 -46 -47 -4 -54 -2 -83 27 -29 30 -31 36
-27 86 5 58 21 84 73 116 36 23 76 24 115 4z m4056 -168 c54 -30 320 -174 589
-321 270 -147 764 -417 1099 -599 645 -352 650 -355 644 -422 -2 -24 -8 -31
-28 -33 -17 -2 -164 73 -460 234 -239 129 -473 256 -520 281 -47 25 -265 144
-485 263 -220 119 -519 281 -665 359 -146 79 -277 156 -292 172 -21 21 -28 40
-28 67 0 69 16 69 146 -1z m-1548 -314 c23 -8 97 -42 165 -77 67 -35 394 -204
727 -376 1469 -759 1594 -825 1598 -844 3 -13 -15 -7 -80 25 -141 71 -1141
585 -1789 920 -339 175 -638 323 -663 330 -75 19 -176 7 -250 -30 -118 -58
-131 -80 -325 -528 -95 -219 -175 -410 -178 -425 -4 -22 -1 -29 18 -36 66 -26
109 -35 165 -37 67 -2 89 -13 107 -55 9 -22 11 -16 19 50 5 41 12 77 14 80 3
3 19 -9 34 -27 33 -37 54 -104 46 -144 -6 -30 -75 9 936 -520 165 -86 216
-118 213 -130 -4 -11 20 -27 92 -62 83 -39 105 -46 143 -42 53 5 57 3 92 -52
16 -24 48 -54 75 -69 51 -29 103 -72 103 -86 0 -5 -32 8 -72 28 -71 36 -72 36
-102 18 -38 -22 -107 -22 -141 0 -34 22 -65 74 -65 108 0 25 -10 33 -88 72
l-89 44 -89 -33 c-49 -18 -126 -39 -171 -45 -45 -7 -87 -17 -92 -24 -5 -6 -12
-28 -16 -48 l-7 -37 240 -116 c197 -96 239 -120 235 -135 -4 -14 32 -36 187
-116 106 -55 194 -105 197 -111 4 -11 -227 -563 -503 -1202 -46 -107 -84 -200
-84 -207 0 -6 7 -14 15 -18 12 -4 15 -23 15 -82 l0 -76 -25 16 -25 16 0 -74
c0 -68 2 -75 25 -90 23 -15 25 -22 25 -96 0 -43 5 -82 10 -85 21 -13 10 -109
-19 -181 -57 -139 -85 -172 -139 -161 -15 3 -121 57 -237 120 -115 62 -353
191 -528 286 -189 103 -324 170 -333 167 -20 -8 -141 60 -149 82 -4 14 -485
281 -889 495 -50 27 -119 63 -154 82 l-63 33 -13 -27 c-50 -97 -116 -274 -116
-312 0 -61 36 -117 102 -156 60 -35 479 -264 1248 -681 289 -156 932 -506
1430 -777 498 -271 946 -514 995 -540 50 -26 307 -167 572 -312 475 -260 484
-264 621 -303 76 -21 163 -48 193 -60 165 -64 350 -165 332 -180 -4 -3 -31
-16 -59 -29 l-51 -23 -54 34 c-92 58 -382 179 -396 165 -2 -2 63 -39 144 -83
173 -92 203 -117 203 -169 0 -20 -5 -46 -11 -57 -8 -14 -8 -23 0 -31 6 -6 11
-42 11 -80 l0 -69 -43 47 -43 48 -42 -27 c-23 -14 -42 -28 -42 -31 0 -3 16
-27 34 -53 40 -55 59 -99 47 -106 -5 -3 -16 14 -25 37 -9 24 -29 58 -44 76
-29 35 -46 36 -85 7 -17 -13 -17 -17 11 -68 35 -61 48 -113 33 -123 -7 -4 -11
5 -11 22 0 31 -41 126 -59 137 -6 4 -29 -3 -52 -16 -31 -17 -39 -27 -35 -43
31 -121 23 -109 110 -160 45 -27 97 -58 116 -69 l35 -21 0 -234 0 -234 -95
-57 c-52 -31 -248 -145 -435 -252 -187 -108 -390 -225 -450 -261 l-111 -64
-34 22 c-19 12 -73 42 -120 67 l-85 46 3 -53 4 -53 34 20 c19 11 37 19 39 17
5 -6 -329 -199 -344 -199 -7 0 -11 26 -11 75 0 47 -4 75 -11 75 -7 0 -9 -24
-7 -69 l3 -70 -60 32 c-33 17 -62 35 -65 38 -3 4 -3 42 0 84 l5 78 113 65 114
65 -26 21 c-25 21 -26 23 -28 168 l-3 147 -115 -70 c-291 -179 -613 -370 -671
-400 -94 -47 -320 -184 -407 -247 -88 -63 -484 -308 -557 -344 -70 -35 -147
-52 -240 -51 -127 0 20 -74 -1400 706 -280 154 -532 294 -560 312 -88 57 -304
175 -322 175 -34 0 -377 201 -433 254 -67 63 -405 256 -448 256 -19 0 -160 72
-397 202 l-368 203 -511 565 c-281 310 -521 576 -533 591 l-23 26 473 289
c259 158 531 324 602 367 72 44 245 150 385 235 140 85 546 332 903 549 356
217 673 404 705 415 36 13 93 22 154 26 l97 5 246 -134 c238 -129 245 -134
224 -150 -21 -15 -3 -26 507 -304 291 -158 567 -309 614 -335 97 -54 302 -166
1428 -781 442 -242 805 -439 807 -439 1 0 164 -88 361 -196 326 -178 365 -197
424 -204 117 -15 162 -18 153 -10 -4 4 -215 120 -468 257 -399 217 -1642 894
-3140 1710 -242 132 -559 304 -705 383 -364 196 -375 203 -407 257 -21 37 -27
58 -26 107 1 52 10 82 62 201 34 77 59 144 57 151 -2 6 -64 43 -138 83 -179
97 -198 120 -163 204 18 43 44 24 -258 187 -125 68 -237 134 -247 148 -11 14
-20 35 -20 48 0 13 115 290 255 615 140 326 255 598 255 604 0 6 -28 31 -62
55 -101 74 -172 178 -203 297 -19 72 -19 202 0 272 45 171 180 313 353 373 98
33 239 32 340 -4 56 -20 80 -24 103 -18 17 5 45 7 62 3 18 -3 177 -79 353
-169 259 -132 329 -164 362 -164 32 0 44 -5 60 -27 l20 -27 20 40 c11 21 86
194 167 384 180 420 185 431 244 490 104 104 265 141 409 93z m-1488 -68 c42
-22 37 -28 -5 -8 -51 25 -67 6 -63 -74 l3 -61 72 42 c59 34 70 45 60 55 -10
11 -8 11 11 2 21 -11 23 -18 20 -78 -2 -53 -7 -68 -23 -77 -18 -10 -18 -10 -3
3 13 10 18 28 18 68 0 62 -1 62 -69 18 -38 -23 -41 -29 -41 -70 0 -50 10 -61
42 -44 60 31 -10 -16 -112 -75 l-115 -66 -3 65 c-2 52 -7 67 -22 75 -19 10
-20 7 -20 -50 l0 -61 -42 23 -43 23 -3 67 -3 66 148 85 c81 47 152 86 156 86
4 1 21 -6 37 -14z m1586 -666 c192 -94 444 -217 559 -274 116 -56 295 -144
398 -196 l188 -93 -62 -21 c-35 -12 -65 -27 -67 -33 -2 -7 -8 -12 -13 -12 -5
0 -139 62 -297 139 -158 76 -476 230 -707 341 -231 111 -422 204 -425 207 -8
7 53 113 66 113 6 0 168 -77 360 -171z m226 -425 c392 -190 714 -347 716 -349
5 -4 -46 -102 -56 -109 -4 -2 -105 42 -223 98 -117 57 -437 210 -709 341 -272
130 -497 239 -499 241 -4 4 49 124 55 124 1 0 323 -156 716 -346z m4502 -102
c3 -5 0 -9 -7 -9 -7 0 -43 -17 -80 -39 -71 -42 -71 -42 -59 -121 l7 -42 115
66 c63 35 121 70 129 76 11 9 13 9 10 0 -2 -7 -44 -36 -94 -66 l-90 -54 -3
-57 -3 -56 68 35 c88 46 65 30 -70 -50 l-107 -63 -65 36 -64 37 -1 70 0 70 53
31 c28 18 84 49 122 70 39 20 84 46 100 56 35 21 32 20 39 10z m-2200 -754
c193 -99 659 -340 1035 -535 377 -194 693 -361 704 -371 10 -9 25 -29 33 -44
30 -58 20 -93 -126 -432 -77 -178 -140 -327 -140 -330 0 -10 471 -237 483
-233 15 5 428 979 439 1036 20 109 -21 231 -107 316 -40 40 -96 74 -275 166
-577 297 -770 401 -770 416 0 14 217 -93 830 -410 221 -115 272 -156 321 -261
35 -75 47 -175 30 -253 -6 -29 -105 -271 -221 -538 -115 -268 -210 -490 -210
-494 0 -4 34 -22 75 -40 41 -18 75 -38 75 -45 0 -21 -34 -106 -42 -106 -5 0
-40 16 -78 35 -38 19 -73 35 -78 35 -8 0 -23 -33 -78 -175 -15 -38 -30 -75
-35 -80 -4 -6 -117 -265 -252 -575 -134 -311 -284 -658 -333 -772 -66 -153
-90 -199 -92 -179 -2 18 101 270 314 767 174 406 320 753 325 771 5 18 32 78
59 135 27 57 50 110 50 119 0 10 -79 53 -241 132 l-240 116 -30 -65 c-16 -36
-29 -71 -29 -77 1 -7 59 -40 130 -74 l128 -61 4 -70 3 -69 -149 73 c-81 41
-154 74 -161 74 -7 0 -63 -118 -125 -262 -63 -145 -122 -273 -133 -285 -27
-30 -59 -29 -121 6 -28 15 -80 44 -116 63 -67 36 -675 366 -1530 830 -388 211
-488 269 -498 291 -13 26 -2 56 203 535 119 279 223 521 230 537 7 17 59 135
114 264 55 128 108 243 118 254 25 28 71 46 117 47 31 0 107 -35 390 -182z
m-6544 -222 l0 -83 -222 -129 c-123 -70 -295 -170 -382 -221 -88 -51 -163 -93
-168 -93 -4 0 -8 24 -8 53 0 45 5 60 38 104 34 47 65 68 382 251 190 110 348
201 353 201 4 1 7 -37 7 -83z m1052 37 c25 -22 24 -95 -3 -149 -46 -95 -135
-134 -177 -78 l-19 27 -169 -98 c-93 -54 -253 -147 -355 -206 -103 -60 -192
-109 -199 -109 -6 0 -93 46 -193 103 -99 56 -185 101 -190 99 -6 -2 -133 -74
-283 -160 l-273 -157 -1 -131 0 -131 -213 -123 -213 -123 -34 -61 c-98 -178
-84 -166 -358 -322 -213 -123 -248 -146 -257 -173 -17 -48 -22 -45 -17 7 8 88
-45 105 -117 39 -30 -28 -33 -29 -19 -7 19 31 74 70 99 70 18 0 28 -8 52 -43
11 -17 31 -7 247 119 129 75 240 141 247 146 6 5 27 40 47 78 84 165 81 163
309 294 l207 118 0 115 0 115 -44 -26 c-25 -14 -47 -26 -50 -26 -3 0 -6 117
-6 259 0 143 -4 262 -8 265 -4 2 -190 -101 -412 -229 -402 -233 -404 -234
-416 -275 -33 -110 -148 -180 -190 -115 -47 73 48 245 136 245 25 0 53 -21 61
-46 2 -7 184 92 424 230 l420 243 5 -269 5 -268 330 190 c182 104 333 190 336
190 4 0 90 -48 192 -106 l186 -106 213 123 c117 67 278 159 357 205 l143 82
23 57 c26 63 46 89 90 116 37 23 63 24 87 2z m-2008 -59 l34 -61 -55 -32 c-30
-18 -56 -31 -57 -29 -2 1 -18 29 -36 61 -23 42 -30 61 -22 69 16 16 86 56 95
54 4 0 23 -29 41 -62z m-195 -103 c17 -32 31 -63 31 -67 0 -9 -100 -68 -105
-62 -2 2 -19 30 -38 63 l-35 60 51 32 c29 18 55 33 58 33 3 0 20 -27 38 -59z
m-191 -111 c18 -33 31 -64 28 -69 -11 -18 -98 -63 -105 -55 -5 5 -22 34 -40
65 l-31 57 52 30 c29 17 55 31 58 31 3 1 20 -26 38 -59z m2132 -40 c0 -13 -15
-29 -42 -46 -146 -85 -439 -254 -443 -254 -3 0 -5 10 -5 23 1 18 40 45 238
159 130 75 240 136 245 137 4 1 7 -8 7 -19z m0 -110 c0 -22 -132 -106 -150
-95 -22 14 -7 32 63 72 83 49 87 50 87 23z m20 -439 l0 -59 -297 -175 c-487
-285 -584 -340 -590 -333 -4 4 -9 32 -11 64 l-4 57 443 253 c243 138 446 252
451 252 4 0 8 -27 8 -59z m78 -413 l-3 -62 -85 -51 c-47 -28 -106 -64 -132
-79 l-48 -28 0 69 0 68 128 73 c70 39 131 72 135 72 4 0 7 -28 5 -62z m336
-87 c6 -10 -51 -201 -65 -216 -10 -10 -169 141 -169 162 0 7 17 17 38 22 20 5
62 16 92 25 65 17 97 19 104 7z m-1919 -186 c17 -12 67 -43 113 -69 l82 -48 0
-134 c0 -74 -3 -134 -7 -134 -3 0 -66 34 -139 77 l-132 76 -6 66 c-14 141 -18
161 -32 161 -21 0 -27 22 -14 54 l10 27 47 -27 c27 -16 62 -38 78 -49z m1525
-228 l0 -63 -52 -30 c-29 -17 -200 -117 -381 -222 -180 -106 -329 -192 -332
-192 -3 0 -5 30 -5 68 l0 67 382 218 c210 119 383 217 385 217 2 0 3 -28 3
-63z m-2785 -8 c10 -14 -14 -66 -33 -74 -35 -13 -40 36 -6 70 18 18 30 19 39
4z m7455 -194 c39 -8 95 -26 124 -40 61 -29 66 -41 66 -172 l0 -73 -65 45
c-88 60 -155 78 -264 73 -130 -6 -226 -58 -318 -170 -41 -50 -107 -49 -146 4
-34 46 -18 89 66 172 144 143 341 202 537 161z m3063 -116 c23 -12 44 -23 46
-25 5 -4 -29 -96 -39 -107 -6 -7 -81 23 -99 39 -4 3 41 114 47 114 1 0 22 -10
45 -21z m-1785 -574 c100 -24 198 -79 274 -155 l68 -68 0 -291 c0 -287 0 -291
-21 -291 -65 0 -87 48 -63 143 33 137 1 266 -93 367 -170 184 -440 181 -611
-5 -64 -70 -101 -87 -143 -64 -63 33 -67 95 -9 168 71 90 184 161 310 195 71
19 208 20 288 1z m2144 -209 c10 -14 10 -266 1 -266 -18 0 -263 147 -263 157
0 7 36 49 80 94 l80 81 48 -28 c26 -15 50 -32 54 -38z m-10382 -821 c0 -2 -10
-9 -22 -15 -22 -11 -22 -10 -4 4 21 17 26 19 26 11z m112 -649 c251 -138 455
-252 453 -254 -2 -2 -115 57 -252 131 -614 332 -666 361 -685 392 -26 43 -22
54 5 15 17 -26 119 -86 479 -284z m8873 -500 c85 -40 97 -49 111 -82 21 -49
12 -101 -22 -133 l-26 -26 6 35 c23 117 20 122 -69 168 -52 26 -121 82 -102
82 4 0 50 -20 102 -44z m3969 -1683 c3 -27 8 -123 12 -214 l6 -166 -23 -6
c-64 -17 -65 -16 -72 91 -4 53 -7 122 -8 152 -1 53 -3 48 -44 -99 -24 -84 -45
-155 -47 -156 -2 -2 -19 -6 -38 -10 l-36 -6 -34 140 c-19 76 -36 138 -38 136
-2 -2 -6 -68 -10 -147 l-7 -143 -37 -9 c-21 -5 -41 -7 -44 -3 -9 9 16 420 26
430 4 5 32 11 62 14 65 6 54 22 98 -150 16 -62 31 -105 34 -97 2 8 14 51 26
95 49 186 48 183 83 188 86 11 85 11 91 -40z m-476 -29 c2 -1 1 -20 -3 -41 -6
-38 -7 -39 -41 -35 -51 6 -119 -23 -142 -61 -40 -66 -38 -147 5 -193 22 -24
29 -26 81 -22 31 3 64 8 73 12 13 6 17 -1 22 -31 7 -41 2 -47 -53 -63 -149
-43 -255 32 -253 180 1 139 82 239 210 259 42 7 90 5 101 -5z m-368 -258 l0
-213 -31 -7 c-70 -14 -69 -15 -69 85 0 81 -2 90 -17 85 -10 -2 -42 -8 -70 -11
l-53 -7 0 -88 c0 -97 -2 -100 -66 -100 l-34 0 0 214 0 214 31 6 c69 14 69 14
69 -74 l0 -81 63 7 c34 4 65 9 70 11 4 2 7 40 7 83 0 86 2 88 63 89 l37 1 0
-214z m-502 118 c31 -20 45 -60 39 -116 -7 -82 -59 -129 -169 -152 -27 -6 -28
-8 -28 -80 0 -79 -5 -85 -67 -86 l-23 0 0 214 0 215 53 10 c28 6 61 13 72 15
32 7 98 -4 123 -20z m-288 -53 c0 -35 -3 -39 -31 -45 -17 -3 -42 -6 -55 -6
l-24 0 0 -175 c0 -132 -3 -177 -12 -180 -7 -2 -30 -6 -50 -10 l-38 -6 0 176 0
176 -56 -7 -55 -6 3 43 3 43 150 21 c83 12 153 20 158 18 4 -3 7 -21 7 -42z
m-534 -44 c4 -3 3 -23 0 -44 l-7 -38 -53 3 c-74 5 -131 -24 -157 -81 -46 -102
-2 -197 91 -197 51 0 60 8 60 57 0 44 0 45 -30 38 -29 -6 -30 -6 -30 34 0 45
1 46 93 56 l58 7 -3 -117 -3 -117 -50 -20 c-72 -29 -184 -30 -222 -2 -68 51
-95 134 -74 229 21 95 89 163 191 192 42 12 124 12 136 0z m-449 -77 c96 -58
102 -260 11 -357 l-20 -21 45 -7 45 -7 -11 -35 c-6 -19 -17 -37 -23 -40 -7 -3
-49 5 -93 16 -44 12 -96 21 -114 21 -38 0 -90 31 -121 73 -28 38 -35 156 -12
224 17 52 81 124 126 142 44 17 132 13 167 -9z m-367 -239 l0 -218 -42 -6
c-23 -3 -46 -3 -50 -1 -4 3 -8 44 -8 90 l0 86 -42 -7 c-24 -3 -55 -8 -70 -11
l-28 -6 0 -88 0 -87 -31 -7 c-78 -15 -73 -32 -65 211 4 120 8 218 9 219 1 1
21 4 45 7 l42 5 0 -85 0 -85 28 6 c15 2 45 8 67 11 22 4 43 12 47 18 4 7 8 44
8 84 0 70 0 72 28 76 68 10 62 30 62 -212z m-474 123 c103 -49 112 -251 15
-352 -47 -48 -121 -78 -219 -88 l-72 -7 0 92 c0 84 -1 91 -20 91 -17 0 -20 7
-20 40 0 33 3 40 20 40 17 0 19 8 22 87 l3 88 50 11 c75 18 181 17 221 -2z
m2220 -30 c8 -31 -23 -77 -53 -82 -46 -7 -72 68 -35 100 38 34 77 26 88 -18z
m-706 2 l0 -33 -72 -10 c-40 -6 -76 -8 -80 -6 -5 2 -8 17 -8 33 0 26 4 30 38
35 20 4 44 8 52 10 8 1 27 3 43 4 24 1 27 -2 27 -33z m-2536 -121 l26 -40 -27
-6 c-22 -5 -33 0 -49 18 l-21 25 -13 -31 c-10 -25 -18 -31 -41 -31 -16 0 -29
2 -29 5 0 3 12 27 28 54 22 40 33 51 57 53 35 4 35 4 69 -47z m-275 1 c20 -24
9 -69 -19 -83 -51 -25 -91 36 -51 76 24 24 54 27 70 7z m-339 -111 l0 -84 36
24 c65 44 124 26 144 -43 5 -20 10 -83 10 -138 0 -112 -1 -114 -66 -114 l-34
0 0 103 c0 106 -7 127 -41 127 -36 0 -49 -39 -49 -146 l0 -101 -31 -7 c-63
-12 -59 -26 -59 223 l0 230 28 4 c66 10 62 14 62 -78z m984 44 c25 -29 26 -36
26 -154 l0 -122 -31 -7 c-60 -12 -59 -14 -59 90 0 52 -5 104 -10 115 -12 21
-54 26 -67 7 -4 -7 -10 -62 -13 -123 l-5 -110 -43 -6 c-23 -3 -44 -3 -47 -1
-3 3 -5 74 -5 158 l0 153 36 7 c29 5 39 3 47 -11 5 -9 12 -13 16 -8 15 23 59
43 92 43 29 0 43 -7 63 -31z m-1151 -221 c-4 -137 -10 -216 -17 -221 -6 -4
-28 -6 -50 -5 l-39 3 -71 136 -71 136 4 -148 c3 -161 7 -152 -56 -163 l-33 -5
0 218 0 219 31 6 c80 16 77 18 169 -155 l50 -94 0 136 c0 75 3 139 7 142 3 4
23 7 44 7 l38 0 -6 -212z m812 172 c23 -24 30 -41 33 -89 l4 -58 -31 -6 c-17
-4 -60 -9 -96 -13 -36 -4 -65 -10 -65 -14 0 -4 9 -15 20 -25 19 -18 62 -17
128 1 20 6 22 3 22 -29 0 -30 -5 -37 -32 -48 -18 -8 -61 -14 -95 -14 -51 0
-66 4 -87 24 -102 96 -18 301 124 301 38 0 51 -5 75 -30z m-295 -159 c0 -156
0 -159 -22 -165 -13 -3 -35 -6 -50 -6 l-28 0 0 78 c0 42 3 114 7 159 l6 82 36
4 c20 2 39 4 44 5 4 1 7 -69 7 -157z m-985 68 c8 -37 -10 -86 -36 -94 -17 -6
-19 -18 -19 -145 l0 -138 -40 -4 c-26 -2 -41 1 -45 10 -3 10 -11 8 -33 -8 -15
-11 -44 -23 -64 -27 -32 -5 -41 -1 -68 25 l-30 30 0 131 0 131 29 0 c16 0 36
3 45 6 14 5 16 -6 16 -87 0 -52 3 -104 6 -116 8 -29 32 -37 60 -18 23 15 24
21 24 125 l0 109 43 8 c39 8 42 11 42 42 0 25 6 36 20 42 35 13 43 10 50 -22z
m-345 -24 c0 -41 -2 -45 -24 -45 -13 0 -38 -3 -55 -6 l-31 -6 0 -173 c0 -171
0 -173 -22 -179 -13 -3 -34 -6 -48 -6 l-25 0 0 172 0 173 -35 -3 c-19 -2 -43
-5 -52 -8 -15 -5 -18 2 -18 40 0 30 4 46 13 47 6 0 64 9 127 19 177 27 170 28
170 -25z m2155 -2 c-13 -55 -67 -173 -78 -173 -7 0 -21 -3 -33 -6 l-20 -5 19
83 c24 104 28 112 63 119 54 12 57 11 49 -18z m-3215 -317 c0 -236 3 -226 -66
-226 l-34 0 0 86 0 87 -52 -7 c-29 -3 -61 -6 -70 -6 -16 0 -18 -11 -18 -90 0
-98 2 -94 -62 -105 l-38 -6 0 219 0 219 38 7 c64 10 62 13 62 -75 l0 -81 63 7
c34 4 65 9 70 12 4 2 7 40 7 83 0 86 0 86 68 89 l32 1 0 -214z m630 160 c0
-45 -10 -56 -49 -56 -74 0 -116 -90 -68 -146 24 -27 27 -28 66 -18 44 12 51 6
51 -42 0 -31 -32 -44 -105 -44 -43 0 -60 5 -84 26 -69 58 -62 183 16 256 37
35 67 47 126 47 43 1 47 -1 47 -23z m-321 -51 c53 -45 65 -140 26 -215 -56
-107 -224 -121 -271 -22 -23 48 -14 141 17 187 52 76 167 101 228 50z m-1679
-140 l0 -86 30 23 c18 13 45 22 65 22 73 0 101 -69 89 -221 -6 -86 -8 -93 -28
-93 -11 0 -31 -3 -43 -6 -23 -6 -23 -5 -23 99 0 83 -3 109 -16 121 -20 21 -30
20 -54 -4 -17 -17 -20 -33 -20 -124 0 -114 -1 -116 -66 -116 l-34 0 0 123 c0
68 3 172 6 230 l7 106 36 4 c20 2 39 4 44 5 4 1 7 -36 7 -83z m-142 23 c-8
-13 -38 -60 -67 -105 l-53 -82 67 -111 c37 -61 65 -113 62 -116 -2 -3 -27 -7
-54 -11 l-50 -5 -43 78 c-53 97 -49 93 -66 70 -9 -13 -14 -45 -14 -92 0 -79
-4 -84 -66 -84 l-34 0 0 214 c0 236 -3 226 66 226 l34 0 0 -87 0 -88 54 93
c29 51 56 95 59 98 4 4 61 16 111 23 4 0 2 -9 -6 -21z m937 16 c32 -13 44 -57
46 -180 l1 -119 -41 -6 c-30 -4 -41 -2 -41 8 0 9 -9 7 -31 -9 -42 -31 -104
-31 -130 1 -26 32 -25 100 2 135 23 29 69 56 112 65 31 7 36 21 13 36 -11 7
-30 5 -63 -7 -26 -9 -49 -16 -51 -14 -1 2 -4 16 -5 32 -2 24 4 32 33 46 34 18
122 24 155 12z m-315 -49 c41 -21 60 -63 60 -130 0 -96 -47 -163 -133 -186
-86 -23 -156 24 -165 110 -7 72 5 117 41 158 53 61 134 80 197 48z m2128 -67
c7 -7 12 -21 12 -33 0 -29 -19 -45 -51 -45 -35 0 -47 31 -25 65 18 27 45 32
64 13z m-4048 -123 l0 -75 37 20 c45 24 55 24 92 5 40 -20 51 -61 51 -191 0
-105 -2 -114 -19 -114 -10 0 -33 -3 -50 -6 l-31 -6 0 110 c0 126 -10 147 -55
118 -14 -9 -26 -20 -26 -24 -1 -4 -4 -54 -8 -112 l-6 -105 -42 -3 -43 -3 0
225 c0 245 -3 234 63 235 l37 1 0 -75z m812 50 c3 -3 2 -20 -1 -38 -6 -28 -12
-32 -49 -39 -23 -4 -47 -10 -53 -14 -20 -12 -40 -75 -34 -105 9 -38 38 -53 91
-45 l44 6 0 -39 c0 -35 -3 -39 -39 -49 -78 -24 -149 -5 -175 47 -21 39 -20
134 0 178 19 38 68 80 111 93 32 10 97 13 105 5z m-1106 -40 c15 -23 15 -27 0
-49 -31 -49 -86 -41 -86 12 0 30 26 62 51 62 10 0 26 -11 35 -25z m789 -35
c73 -68 51 -224 -39 -280 -78 -48 -170 -30 -208 40 -27 49 -19 137 17 191 51
77 173 103 230 49z m2555 0 c15 -27 4 -59 -23 -69 -30 -12 -57 5 -57 34 0 49
59 74 80 35z m-3884 -61 c103 -49 116 -237 23 -343 -50 -57 -120 -87 -221 -94
l-78 -5 0 91 c0 85 -1 90 -20 85 -18 -5 -20 0 -20 37 0 33 4 43 20 47 18 5 20
14 20 88 l0 84 58 11 c31 7 62 14 67 15 34 11 114 3 151 -16z m544 -168 c0
-174 1 -171 -61 -171 l-29 0 0 159 0 160 38 4 c20 2 40 4 45 5 4 1 7 -70 7
-157z m-216 115 c48 -20 57 -53 54 -186 l-3 -115 -52 0 c-28 -1 -58 -7 -66
-14 -21 -16 -93 -17 -113 0 -68 56 -20 172 84 202 27 8 47 20 47 28 0 21 -49
23 -86 4 -35 -19 -49 -10 -49 32 0 16 10 25 43 37 79 28 98 30 141 12z m-1614
-127 c24 -46 24 -44 -12 -53 -22 -5 -32 0 -61 36 -20 23 -33 46 -31 50 3 4 23
8 44 8 36 0 41 -4 60 -41z m820 -121 c-1 -220 -14 -262 -100 -305 -48 -25
-153 -32 -165 -12 -4 6 -4 25 -1 44 l7 33 53 -5 c49 -5 57 -3 80 20 14 14 26
36 26 48 0 20 -1 21 -25 5 -34 -22 -97 -20 -128 4 -75 59 -53 226 37 281 33
20 101 26 111 9 9 -15 25 -12 25 4 0 9 13 16 33 19 17 2 35 5 40 5 4 1 7 -67
7 -150z m-656 96 c13 -34 6 -75 -18 -97 -21 -20 -23 -29 -18 -80 6 -79 -17
-139 -70 -177 -52 -38 -114 -48 -162 -25 -109 52 -90 247 30 305 39 19 55 22
111 16 l66 -7 -6 35 c-4 27 -2 36 11 39 34 9 50 7 56 -9z m-336 -57 c3 -41 0
-48 -27 -68 l-31 -23 0 -133 0 -133 -24 0 c-13 0 -31 -3 -40 -6 -11 -4 -16 0
-16 14 0 20 -1 20 -26 -3 -34 -32 -90 -42 -123 -24 -39 22 -52 76 -49 198 l3
106 48 5 47 6 0 -107 c0 -115 9 -137 50 -124 31 10 40 45 40 149 l0 92 38 10
c32 8 37 13 37 39 0 22 7 33 25 42 37 18 45 11 48 -40z m613 27 c22 -24 24
-34 27 -153 4 -127 3 -128 -20 -134 -13 -4 -35 -7 -50 -7 l-27 0 -3 113 -3
112 -28 3 c-40 5 -57 -42 -57 -158 0 -87 -1 -90 -22 -90 -13 0 -33 -3 -45 -6
l-23 -6 0 161 c0 88 4 161 9 161 5 0 23 3 40 6 24 5 31 3 31 -9 0 -13 7 -12
36 8 50 34 103 33 135 -1z m-1181 -58 l0 -45 -55 -6 -55 -7 -2 -177 -3 -176
-42 -6 -43 -5 0 174 0 175 -55 -7 -55 -6 0 44 0 43 143 21 c78 11 148 20 155
21 8 1 12 -14 12 -43z m3274 -2 c9 -8 16 -23 16 -31 0 -22 -29 -53 -50 -53
-42 0 -54 59 -18 84 28 20 33 20 52 0z m-3084 -89 c0 -39 -3 -45 -25 -51 -40
-10 -50 -32 -60 -138 l-10 -101 -42 -6 -43 -5 0 157 c0 169 0 169 56 169 18 0
24 -5 24 -21 0 -19 3 -18 29 10 16 17 38 31 50 31 18 0 21 -6 21 -45z m2136
-59 c9 -36 -12 -68 -43 -64 -36 4 -50 29 -35 62 16 36 69 37 78 2z"/>
<path d="M8396 18672 c-17 -2 -63 -17 -103 -33 -87 -34 -114 -36 -138 -9 -24
26 -59 25 -122 -4 -54 -25 -63 -25 -63 5 0 16 -27 39 -44 39 -10 0 -7 -58 3
-64 5 -4 60 -97 122 -209 61 -111 114 -205 116 -209 2 -4 -2 -5 -10 -2 -27 10
-71 -100 -75 -186 -8 -164 90 -295 249 -336 141 -36 300 32 364 156 11 22 12
30 3 30 -9 0 -9 3 0 12 10 10 14 10 21 0 12 -20 42 -3 57 32 8 20 13 24 14 13
0 -10 -5 -27 -10 -38 -9 -16 -7 -19 9 -19 30 0 45 62 25 108 -19 47 -41 70
-85 93 -38 19 -74 16 -83 -7 -3 -9 7 -19 29 -28 36 -15 60 -45 70 -89 7 -27
-9 -62 -25 -52 -10 6 -251 -23 -277 -35 l-22 -9 24 -43 c13 -24 38 -54 55 -66
28 -21 32 -22 59 -7 17 8 32 19 35 24 3 5 -19 28 -49 51 -30 23 -55 45 -55 47
0 6 6 2 73 -52 52 -41 51 -52 -6 -81 -26 -14 -31 -14 -48 2 -10 9 -19 12 -19
6 0 -6 5 -14 12 -18 20 -13 -23 -23 -97 -22 -43 0 -59 3 -42 7 27 6 26 7 -47
65 -42 32 -81 66 -88 74 -7 9 30 -19 83 -61 80 -64 102 -77 133 -77 20 0 36 3
36 6 0 4 -18 39 -40 77 -23 39 -39 76 -36 84 3 7 -7 4 -24 -8 -19 -15 -35 -19
-47 -14 -16 7 -15 9 8 19 14 6 37 20 51 32 l26 20 -25 22 c-15 13 -23 29 -19
37 3 9 0 15 -9 15 -7 0 -15 -10 -17 -22 -4 -27 -38 -38 -38 -13 0 12 5 15 18
11 16 -6 16 -5 0 8 -27 20 -22 35 17 52 31 13 39 13 65 -1 16 -8 36 -25 44
-37 9 -12 16 -17 16 -11 0 6 39 22 88 34 48 13 79 25 69 27 -12 3 -15 7 -8 15
7 9 -3 12 -39 12 -47 0 -48 -1 -32 -20 9 -10 -13 5 -50 34 -58 45 -72 52 -97
46 -51 -11 -56 -29 -19 -60 18 -15 24 -22 12 -16 -11 5 -26 17 -34 25 -25 31
-67 8 -49 -26 5 -10 6 -18 1 -18 -10 0 -38 48 -31 54 2 2 32 18 66 35 91 45
149 44 171 -4 16 -35 54 -41 136 -21 117 27 155 20 218 -41 l36 -35 16 25 c38
57 35 180 -4 258 -11 21 -38 66 -59 99 -21 33 -42 71 -45 86 -9 34 14 68 60
92 l36 19 -26 21 c-44 34 -127 48 -195 33 -31 -7 -80 -15 -109 -18 -49 -5 -56
-3 -85 24 -35 33 -56 40 -101 35z m64 -202 l41 -60 69 0 c39 0 70 -3 70 -6 0
-4 -19 -23 -42 -43 l-41 -37 35 -55 c19 -29 38 -60 43 -68 7 -13 -90 37 -123
62 -9 7 -23 0 -50 -26 -21 -21 -41 -37 -45 -37 -4 0 -7 26 -7 59 l0 59 -72 43
-73 44 73 3 72 3 0 59 c0 33 2 60 5 60 2 0 23 -27 45 -60z m-225 -425 c17 -15
0 -4 -36 24 -36 28 -69 47 -73 44 -4 -4 -4 0 -1 8 6 16 13 11 110 -76z m-124
24 c-5 -13 -10 -19 -10 -12 -1 15 10 45 15 40 3 -2 0 -15 -5 -28z m132 -143
l22 -18 -22 13 c-12 8 -49 36 -83 62 l-60 48 -2 -48 c-1 -45 -2 -46 -5 -9 -8
70 1 72 68 19 33 -26 70 -56 82 -67z m57 14 c0 -23 -25 -27 -33 -6 -5 13 5 23
26 25 4 1 7 -8 7 -19z m55 -37 c-22 -15 -85 -18 -85 -3 0 6 15 10 34 10 19 0
38 5 41 10 4 6 11 7 17 4 7 -5 4 -12 -7 -21z m-248 -5 c-3 -8 -6 -5 -6 6 -1
11 2 17 5 13 3 -3 4 -12 1 -19z m38 -8 c10 -11 16 -20 13 -20 -3 0 -13 9 -23
20 -10 11 -16 20 -13 20 3 0 13 -9 23 -20z m229 -17 c-28 -20 -64 -27 -76 -15
-8 8 -6 13 8 17 10 4 33 12 49 19 35 16 48 1 19 -21z m-179 -23 c10 -11 16
-20 13 -20 -3 0 -13 9 -23 20 -10 11 -16 20 -13 20 3 0 13 -9 23 -20z m-61 -6
c3 -8 2 -12 -4 -9 -6 3 -10 10 -10 16 0 14 7 11 14 -7z m546 -11 c10 10 10 8
1 -10 -6 -12 -16 -25 -23 -29 -7 -5 -8 -3 -3 6 5 8 -1 20 -16 33 l-24 19 26
-15 c20 -12 29 -13 39 -4z m-484 -75 l29 -33 -32 29 c-31 28 -38 36 -30 36 2
0 16 -15 33 -32z m454 18 c0 -2 -8 -10 -17 -17 -16 -13 -17 -12 -4 4 13 16 21
21 21 13z m-335 -86 c13 -6 15 -9 5 -9 -8 0 -22 4 -30 9 -18 12 -2 12 25 0z"/>
<path d="M8056 18265 c-139 -182 -125 -434 34 -595 223 -228 613 -152 735 143
25 60 3 42 -33 -27 -39 -74 -117 -153 -188 -189 -262 -131 -575 31 -624 324
-19 113 17 250 89 331 17 20 31 38 31 42 0 16 -20 3 -44 -29z"/>
<path d="M8075 18229 c-6 -17 -2 -46 8 -55 4 -4 1 -14 -6 -23 -11 -14 -10 -14
6 -2 13 10 14 17 7 27 -9 9 -6 13 10 16 28 4 29 18 3 35 -19 13 -24 13 -28 2z
m30 -21 c6 -4 2 -8 -7 -8 -10 0 -18 7 -18 17 0 9 3 12 8 7 4 -5 12 -12 17 -16z"/>
<path d="M8041 18171 c-6 -10 -7 -21 -3 -25 3 -4 0 -11 -8 -16 -10 -6 -4 -8
19 -8 23 1 29 4 18 10 -9 4 -14 19 -12 33 3 30 -1 31 -14 6z"/>
<path d="M8475 18085 c22 -19 43 -34 48 -35 12 0 -24 50 -44 60 -39 22 -42 8
-4 -25z"/>
<path d="M8030 18100 c8 -5 22 -10 30 -10 13 0 13 1 0 10 -8 5 -22 10 -30 10
-13 0 -13 -1 0 -10z"/>
<path d="M8015 18080 c3 -5 11 -10 16 -10 6 0 7 5 4 10 -3 6 -11 10 -16 10 -6
0 -7 -4 -4 -10z"/>
<path d="M8775 18029 c49 -45 70 -94 60 -140 -7 -29 -6 -30 14 -20 12 7 22 25
26 49 3 20 8 46 10 56 3 12 -10 33 -34 58 -32 32 -45 38 -80 38 l-41 0 45 -41z"/>
<path d="M8023 18033 c25 -6 21 -23 -5 -24 -13 0 -17 -3 -10 -6 6 -2 12 -11
12 -19 0 -8 8 -14 18 -14 15 0 15 2 2 11 -11 8 -12 12 -2 16 6 2 12 13 12 24
0 13 -7 19 -22 18 -17 -1 -19 -2 -5 -6z"/>
<path d="M7999 17961 c7 -5 10 -14 7 -20 -10 -16 7 -13 30 5 16 13 16 15 2 10
-10 -3 -20 -1 -23 4 -4 6 -12 10 -18 10 -8 0 -7 -3 2 -9z"/>
<path d="M8025 17920 c3 -5 10 -10 16 -10 5 0 9 5 9 10 0 6 -7 10 -16 10 -8 0
-12 -4 -9 -10z"/>
<path d="M8014 17899 c-3 -5 3 -9 13 -10 16 0 16 -1 -2 -9 -17 -7 -17 -9 -2
-9 19 -1 24 -21 5 -21 -6 0 -9 -2 -6 -5 3 -3 16 -1 29 4 13 5 18 10 11 10 -8
1 -11 8 -7 20 4 13 0 20 -15 24 -11 3 -23 1 -26 -4z"/>
<path d="M8050 17824 c-14 -8 -17 -13 -7 -10 15 5 16 3 6 -15 -9 -19 -9 -20
10 -10 29 16 38 13 15 -4 -19 -15 -19 -15 1 -9 19 5 19 5 3 -9 -17 -13 -17
-15 1 -32 11 -9 25 -14 31 -10 9 5 10 1 5 -16 -8 -24 -8 -24 14 -5 22 20 28
32 11 21 -5 -3 -10 1 -10 11 0 13 -3 14 -15 4 -15 -12 -35 -6 -35 11 0 6 5 7
10 4 6 -3 10 -1 10 4 0 6 3 10 8 10 24 -4 22 4 -4 24 -17 12 -29 28 -27 35 6
15 4 15 -27 -4z"/>
<path d="M8735 17819 c4 -5 -1 -17 -11 -25 -15 -12 -15 -14 -3 -11 9 3 21 2
28 -2 7 -5 -1 -8 -20 -9 -18 0 -39 -8 -47 -16 -13 -13 -13 -17 -1 -32 13 -15
12 -16 -11 -9 l-25 8 20 -22 c18 -21 20 -21 32 -5 7 9 10 21 7 26 -3 5 0 8 7
6 8 -1 14 2 14 7 0 6 -3 9 -7 8 -5 -2 -11 -4 -15 -5 -5 -2 -9 1 -11 6 -1 5 10
11 24 12 46 5 58 12 45 28 -10 11 -8 15 5 18 14 2 12 6 -10 16 -17 7 -25 8
-21 1z"/>
<path d="M8152 17698 c-18 -18 -15 -38 6 -38 14 0 15 2 2 10 -12 7 -12 12 -2
22 17 17 31 -4 24 -38 -4 -24 -2 -25 27 -21 27 5 31 2 31 -16 1 -22 1 -22 13
1 7 12 17 19 22 15 4 -4 5 -3 1 4 -4 7 -13 10 -21 6 -9 -3 -15 1 -15 11 0 9
-5 16 -11 16 -5 0 -7 5 -4 10 3 6 1 10 -4 10 -6 0 -10 -10 -8 -21 1 -12 -4
-24 -12 -27 -10 -3 -13 1 -9 15 6 21 -7 53 -20 53 -5 0 -13 -5 -20 -12z"/>
<path d="M8623 17682 c-5 -19 -8 -20 -21 -10 -13 11 -14 10 -4 -8 12 -23 0
-50 -18 -39 -6 4 -10 16 -7 26 3 11 1 17 -4 13 -14 -8 -11 -30 7 -45 14 -11
18 -11 29 4 6 9 15 14 19 10 4 -4 4 1 0 12 -6 14 -4 17 9 12 24 -9 32 12 13
31 -15 16 -17 15 -23 -6z m25 -17 c-3 -3 -9 2 -12 12 -6 14 -5 15 5 6 7 -7 10
-15 7 -18z"/>
<path d="M8515 17640 c-4 -6 -1 -9 6 -8 7 2 15 -6 17 -16 3 -14 0 -17 -11 -13
-9 3 -18 0 -20 -7 -4 -9 2 -11 19 -8 27 5 32 33 10 51 -10 8 -16 9 -21 1z"/>
<path d="M8376 17617 c-3 -15 -11 -25 -16 -22 -5 3 -7 12 -3 20 3 9 -1 15 -10
15 -14 0 -31 -39 -22 -49 3 -2 5 1 5 7 0 7 5 12 11 12 6 0 9 -7 5 -15 -7 -19
15 -15 31 5 11 13 12 12 13 -4 0 -11 3 -17 6 -14 3 3 1 21 -4 39 l-8 34 -8
-28z"/>
<path d="M8460 17618 c0 -11 8 -18 20 -18 12 0 20 7 20 18 0 14 -2 15 -10 2
-9 -13 -11 -13 -20 0 -8 13 -10 12 -10 -2z"/>
<path d="M8263 17610 c4 -18 37 -27 37 -10 0 6 -5 8 -11 4 -6 -3 -16 0 -21 7
-8 12 -9 11 -5 -1z"/>
<path d="M8413 17596 c0 -17 3 -23 7 -16 6 9 9 9 12 -1 3 -8 8 -11 12 -8 4 3
-2 17 -12 30 l-19 23 0 -28z"/>
<path d="M14338 17336 c-130 -46 -228 -159 -245 -282 l-6 -47 34 6 c19 4 57 9
86 13 48 6 53 9 63 40 38 115 194 148 235 50 20 -47 19 -86 -3 -144 -26 -68
-78 -141 -256 -356 l-156 -189 0 -54 c0 -49 2 -53 24 -53 21 0 464 61 544 75
l32 6 0 84 c0 47 -4 85 -8 85 -5 0 -73 -9 -152 -20 -79 -11 -145 -19 -146 -17
-2 1 14 23 35 47 216 254 298 427 271 571 -24 128 -112 199 -244 199 -39 -1
-87 -7 -108 -14z"/>
<path d="M13692 17040 c-18 -4 -42 -16 -53 -26 -44 -40 -52 -72 -57 -239 -7
-250 15 -315 108 -315 54 0 90 23 118 73 14 27 17 61 17 227 0 222 -7 253 -61
276 -19 8 -35 14 -36 13 -2 -1 -18 -5 -36 -9z"/>
<path d="M12985 17151 c-132 -35 -246 -159 -271 -295 l-7 -39 68 8 c93 10 102
14 127 65 13 25 38 55 57 67 36 25 98 30 132 13 27 -15 49 -63 49 -109 0 -90
-54 -178 -269 -436 l-150 -180 -1 -62 0 -61 38 5 c20 3 154 21 297 42 l260 36
3 88 c1 48 1 87 -2 87 -2 0 -68 -9 -146 -21 -77 -11 -146 -19 -151 -17 -6 2
32 56 83 121 165 206 212 302 213 437 0 77 -3 90 -31 140 -44 79 -101 112
-197 116 -39 2 -85 0 -102 -5z"/>
<path d="M4990 15464 c-12 -31 -6 -74 10 -74 14 0 32 48 28 74 -5 31 -27 31
-38 0z"/>
<path d="M12296 14895 c-42 -114 -75 -210 -72 -212 5 -6 251 25 283 35 21 7
20 12 -56 196 l-78 188 -77 -207z"/>
<path d="M11306 15064 c-79 -29 -152 -100 -199 -194 -28 -56 -32 -74 -32 -145
0 -93 21 -150 76 -204 139 -139 382 -75 481 127 76 154 36 327 -94 401 -46 27
-63 31 -123 30 -38 0 -88 -7 -109 -15z"/>
<path d="M7870 14585 c-102 -34 -195 -132 -230 -244 -35 -112 -19 -213 46
-289 56 -66 104 -87 199 -87 68 0 88 5 133 28 195 102 265 365 136 516 -20 23
-55 51 -77 63 -53 27 -147 33 -207 13z"/>
<path d="M14512 12435 c0 -16 2 -22 5 -12 2 9 2 23 0 30 -3 6 -5 -1 -5 -18z"/>
<path d="M14771 12291 c-1 -27 2 -32 11 -23 8 8 8 17 0 34 -10 22 -11 21 -11
-11z"/>
<path d="M8265 8836 c-38 -23 -70 -49 -70 -56 0 -17 422 -250 452 -250 24 0
173 86 173 100 0 13 -16 22 -228 139 -121 66 -214 111 -230 111 -15 0 -58 -20
-97 -44z"/>
<path d="M7991 8669 c-86 -53 -131 -86 -129 -96 4 -19 416 -246 448 -246 31 0
284 152 287 173 4 18 -414 250 -450 250 -13 0 -83 -36 -156 -81z"/>
<path d="M8777 8564 c-52 -30 -77 -50 -75 -61 3 -18 263 -163 292 -163 30 0
166 83 166 102 0 11 -46 41 -139 92 -77 42 -145 76 -153 76 -7 0 -48 -21 -91
-46z"/>
<path d="M7660 8467 c-74 -45 -135 -89 -135 -97 0 -13 27 -30 203 -126 35 -19
76 -34 90 -34 32 0 287 153 287 172 0 14 -270 168 -295 168 -8 0 -76 -37 -150
-83z"/>
<path d="M8609 8461 c-96 -52 -244 -150 -244 -162 0 -17 262 -161 293 -161 30
-1 287 154 287 172 0 14 -267 170 -290 170 -6 0 -26 -9 -46 -19z"/>
<path d="M9125 8375 c-42 -27 -70 -51 -70 -62 0 -19 256 -163 290 -163 27 1
159 83 163 101 3 17 -264 169 -295 169 -10 0 -49 -21 -88 -45z"/>
<path d="M8020 8284 c-69 -41 -131 -81 -139 -89 -17 -16 -8 -31 31 -51 26 -13
39 -14 97 -3 80 14 149 2 223 -38 48 -26 48 -26 82 -8 60 32 140 90 140 100
-1 12 -273 164 -294 165 -9 0 -72 -34 -140 -76z"/>
<path d="M7328 8266 c-134 -83 -150 -95 -143 -107 7 -10 403 -229 416 -229 12
0 309 172 309 180 -1 13 -416 230 -439 229 -14 0 -79 -33 -143 -73z"/>
<path d="M8965 8275 c-67 -31 -250 -152 -250 -166 0 -13 267 -169 291 -169 15
0 277 159 286 174 4 6 4 14 0 18 -13 12 -279 158 -288 158 -5 -1 -22 -7 -39
-15z"/>
<path d="M9515 8209 c-22 -12 -60 -35 -84 -52 l-44 -30 22 -18 c42 -34 260
-149 282 -149 28 0 169 87 169 104 0 11 -276 166 -296 166 -5 0 -27 -10 -49
-21z"/>
<path d="M8407 8118 c-48 -29 -87 -56 -87 -59 0 -4 68 -46 151 -94 l150 -86
87 53 c48 29 88 60 90 69 2 11 -39 38 -141 92 -79 43 -148 77 -153 77 -6 0
-49 -24 -97 -52z"/>
<path d="M7000 8065 c-150 -91 -160 -100 -140 -119 15 -14 350 -199 383 -212
20 -7 330 167 318 179 -14 14 -392 217 -415 222 -15 4 -59 -17 -146 -70z"/>
<path d="M9293 8073 c-126 -69 -232 -139 -233 -153 0 -18 254 -161 290 -164
33 -1 290 153 290 175 0 10 -48 42 -131 87 -72 39 -139 74 -149 77 -9 3 -39
-7 -67 -22z"/>
<path d="M9834 8002 c-70 -43 -94 -61 -94 -72 0 -14 275 -160 300 -160 25 0
170 86 170 101 0 5 -17 19 -37 32 -70 43 -250 137 -264 137 -8 0 -41 -17 -75
-38z"/>
<path d="M8820 7967 c-24 -13 -162 -96 -168 -102 -5 -5 296 -175 309 -175 23
1 184 104 187 121 2 10 -42 39 -141 92 -79 42 -147 77 -153 77 -5 0 -20 -6
-34 -13z"/>
<path d="M6645 7850 c-71 -44 -131 -86 -133 -93 -3 -15 267 -167 296 -167 21
0 244 130 277 161 12 12 16 22 10 28 -25 24 -273 151 -295 151 -14 0 -83 -36
-155 -80z"/>
<path d="M9544 7826 c-76 -46 -139 -90 -139 -97 0 -14 269 -168 295 -169 15 0
241 131 273 158 9 8 17 21 17 27 0 12 -276 165 -297 165 -6 0 -73 -38 -149
-84z"/>
<path d="M10167 7804 c-53 -31 -77 -50 -75 -61 4 -20 262 -163 294 -163 26 0
174 86 174 101 0 5 -17 19 -37 32 -70 44 -250 137 -264 137 -8 0 -49 -21 -92
-46z"/>
<path d="M9096 7736 c-48 -29 -92 -58 -96 -62 -5 -5 58 -48 145 -98 l154 -88
98 59 c54 33 99 66 101 74 2 10 -45 40 -141 92 -79 42 -150 77 -158 77 -8 0
-54 -24 -103 -54z"/>
<path d="M6995 7661 c-136 -82 -156 -106 -105 -124 22 -8 48 4 178 78 83 48
152 91 152 95 0 10 -48 30 -73 30 -13 0 -81 -35 -152 -79z"/>
<path d="M9999 7701 c-100 -54 -244 -150 -244 -162 0 -21 275 -170 303 -164
36 9 276 159 280 175 1 10 -42 39 -132 88 -74 41 -143 76 -153 78 -10 3 -34
-4 -54 -15z"/>
<path d="M10506 7609 c-71 -45 -77 -52 -64 -66 24 -24 270 -153 292 -153 22 0
145 70 164 93 10 11 9 17 0 24 -33 26 -278 153 -294 153 -11 0 -55 -23 -98
-51z"/>
<path d="M9450 7549 c-46 -27 -92 -56 -103 -64 -23 -16 -31 -9 138 -105 61
-35 118 -69 127 -77 15 -14 28 -8 128 52 61 37 109 72 107 78 -4 15 -276 167
-298 167 -8 0 -53 -23 -99 -51z"/>
<path d="M10240 7447 c-74 -46 -136 -90 -138 -98 -1 -9 50 -42 143 -93 133
-71 148 -77 173 -67 61 26 267 158 267 172 0 14 -269 169 -295 169 -8 0 -76
-37 -150 -83z"/>
<path d="M10857 7420 c-64 -41 -77 -53 -67 -65 19 -22 270 -155 293 -155 28 1
161 82 165 101 3 15 -266 169 -296 169 -9 0 -52 -23 -95 -50z"/>
<path d="M9769 7341 c-113 -69 -114 -70 -116 -109 l-1 -40 113 -61 c65 -35
124 -61 141 -61 35 0 277 148 282 172 2 11 -38 37 -137 92 -78 42 -147 76
-154 76 -8 0 -65 -31 -128 -69z"/>
<path d="M10705 7325 c-65 -30 -250 -151 -253 -165 -1 -10 44 -40 141 -92 79
-43 148 -78 154 -78 14 0 276 160 285 174 10 15 9 16 -133 94 -149 83 -156 85
-194 67z"/>
<path d="M11224 7242 c-70 -43 -94 -61 -94 -72 0 -13 276 -160 300 -160 24 0
170 87 170 101 0 5 -17 19 -37 32 -70 43 -250 137 -264 137 -8 0 -41 -17 -75
-38z"/>
<path d="M10094 7136 c-76 -46 -140 -88 -142 -94 -5 -16 268 -162 303 -161 35
0 278 147 283 170 2 10 -46 41 -141 92 -79 42 -148 77 -154 77 -6 0 -73 -38
-149 -84z"/>
<path d="M9542 7054 c-101 -141 -105 -150 -67 -140 42 11 279 159 283 176 1 9
-21 27 -60 48 -35 18 -65 32 -68 32 -3 0 -42 -53 -88 -116z"/>
<path d="M11050 7132 c-97 -49 -250 -149 -250 -163 0 -10 52 -43 144 -93 167
-90 136 -91 319 19 68 41 116 77 117 86 0 10 -52 43 -143 92 -79 42 -145 77
-148 77 -3 0 -20 -8 -39 -18z"/>
<path d="M11557 7043 c-42 -26 -77 -53 -77 -59 0 -15 270 -164 297 -164 27 0
175 90 170 104 -4 14 -276 166 -297 166 -8 0 -50 -21 -93 -47z"/>
<path d="M9652 6979 c-73 -45 -131 -86 -129 -93 2 -6 66 -46 143 -88 98 -55
146 -76 162 -73 36 9 277 160 277 175 0 18 -260 160 -293 160 -17 0 -79 -32
-160 -81z"/>
<path d="M10573 7023 c-45 -17 -268 -162 -268 -173 0 -18 261 -160 294 -160
33 0 286 152 286 171 0 13 -270 170 -290 168 -5 0 -16 -3 -22 -6z"/>
<path d="M11412 6949 c-33 -13 -256 -150 -264 -163 -4 -6 -4 -14 0 -18 22 -22
271 -150 292 -151 31 0 285 154 285 173 0 8 -52 43 -115 78 -150 84 -170 92
-198 81z"/>
<path d="M11908 6854 c-43 -25 -78 -52 -78 -59 0 -16 266 -165 295 -165 28 0
159 81 163 101 2 10 -38 38 -130 88 -73 39 -142 74 -153 77 -12 2 -50 -14 -97
-42z"/>
<path d="M9424 6875 c-16 -40 62 -125 113 -125 27 1 70 37 58 49 -10 10 -154
91 -162 91 -2 0 -6 -7 -9 -15z"/>
<path d="M10000 6791 c-69 -43 -125 -84 -125 -92 0 -13 268 -169 291 -169 21
0 289 167 289 180 0 20 -264 160 -300 159 -19 -1 -77 -30 -155 -78z"/>
<path d="M10896 6819 c-99 -53 -241 -147 -241 -160 0 -18 253 -157 289 -158
34 -1 299 155 293 172 -4 12 -274 166 -292 167 -6 0 -28 -9 -49 -21z"/>
<path d="M9615 6754 c-16 -8 -34 -19 -38 -23 -5 -5 60 -48 143 -96 l151 -88
35 19 c19 10 34 26 34 34 0 10 -52 44 -143 93 -79 42 -145 77 -148 77 -2 0
-17 -7 -34 -16z"/>
<path d="M11728 6741 c-106 -55 -239 -143 -235 -154 5 -18 268 -159 295 -159
30 -1 287 154 287 172 0 13 -208 135 -272 160 -17 7 -35 2 -75 -19z"/>
<path d="M12248 6659 c-38 -22 -68 -46 -68 -54 0 -8 20 -26 45 -40 33 -20 52
-25 74 -20 23 5 44 -2 96 -32 58 -33 63 -39 43 -44 l-23 -5 22 -12 c12 -7 28
-12 35 -12 23 0 169 92 165 104 -6 20 -260 155 -292 155 -17 0 -59 -17 -97
-40z"/>
<path d="M10350 6601 c-69 -43 -126 -84 -128 -92 -2 -10 46 -41 141 -92 79
-42 147 -77 152 -77 22 0 285 166 285 180 0 21 -258 160 -296 159 -18 0 -76
-30 -154 -78z"/>
<path d="M11239 6627 c-100 -54 -234 -144 -234 -157 0 -21 253 -159 290 -159
35 0 278 146 283 170 2 10 -38 38 -129 87 -72 39 -139 74 -148 77 -10 3 -37
-5 -62 -18z"/>
<path d="M9951 6558 c-23 -11 -41 -23 -41 -27 0 -5 122 -78 261 -155 l45 -26
37 26 c20 13 37 30 37 37 0 10 -234 143 -281 160 -9 3 -35 -4 -58 -15z"/>
<path d="M12099 6566 c-47 -24 -234 -139 -249 -153 -10 -9 -11 -16 -4 -23 7
-7 32 -1 80 21 38 18 122 51 188 74 l118 42 -35 20 c-51 31 -69 34 -98 19z"/>
<path d="M12598 6468 c-38 -22 -68 -46 -68 -54 0 -7 17 -22 39 -33 34 -18 47
-19 127 -11 49 5 127 10 174 10 l85 0 -119 65 c-66 36 -131 65 -145 65 -14 -1
-56 -19 -93 -42z"/>
<path d="M10700 6412 c-69 -43 -126 -84 -128 -93 -3 -19 250 -161 289 -162 32
0 284 153 284 173 0 21 -252 159 -290 159 -20 0 -72 -26 -155 -77z"/>
<path d="M11600 6442 c-95 -48 -250 -149 -250 -162 0 -13 159 -108 198 -118 7
-2 40 22 75 53 34 31 92 75 129 98 37 23 68 44 68 47 0 5 -173 100 -182 100
-2 0 -19 -8 -38 -18z"/>
<path d="M12263 6430 c-75 -20 -270 -97 -278 -111 -8 -11 122 -81 150 -81 30
0 279 152 283 173 3 16 -37 40 -66 38 -9 0 -49 -9 -89 -19z"/>
<path d="M10300 6367 c-23 -12 -43 -27 -43 -32 0 -10 277 -175 294 -175 19 0
90 52 86 63 -3 12 -200 125 -263 153 -29 12 -36 11 -74 -9z"/>
<path d="M12393 6343 c-34 -20 -61 -38 -60 -39 1 -1 49 10 105 24 91 23 102
27 86 39 -29 21 -66 15 -131 -24z"/>
<path d="M12746 6301 c-29 -6 -29 -6 22 -30 55 -26 78 -23 132 19 l25 20 -75
-1 c-41 -1 -88 -4 -104 -8z"/>
<path d="M11050 6223 c-124 -76 -143 -90 -134 -104 2 -4 67 -42 144 -83 103
-57 145 -75 162 -70 40 11 273 159 273 173 0 19 -259 161 -293 161 -16 0 -78
-32 -152 -77z"/>
<path d="M12923 6265 c-29 -19 -53 -37 -53 -40 0 -2 18 -16 39 -31 29 -19 70
-31 148 -44 59 -11 127 -26 151 -34 42 -15 44 -15 83 9 21 14 39 31 39 38 0
16 -180 115 -233 127 -77 18 -118 12 -174 -25z"/>
<path d="M11885 6264 c-56 -37 -68 -52 -20 -24 39 22 74 50 64 50 -2 0 -22
-12 -44 -26z"/>
<path d="M12485 6261 c-61 -16 -133 -38 -160 -49 -28 -11 -58 -23 -68 -26 -27
-9 -16 -18 74 -65 l82 -43 76 26 c42 14 103 31 136 39 66 15 149 61 142 80 -6
21 -101 67 -137 66 -19 0 -85 -13 -145 -28z"/>
<path d="M11839 6190 c-130 -79 -155 -98 -141 -112 4 -3 41 -25 83 -47 l75
-41 70 68 c38 37 95 85 128 106 44 29 55 41 45 48 -26 17 -108 58 -117 58 -5
0 -69 -36 -143 -80z"/>
<path d="M10641 6174 c-28 -14 -51 -29 -51 -34 0 -4 68 -47 150 -94 l151 -87
47 29 c26 16 47 35 47 42 0 12 -208 135 -272 160 -16 7 -35 2 -72 -16z"/>
<path d="M12776 6175 c-20 -15 -20 -15 0 -15 41 0 93 13 88 21 -8 14 -67 10
-88 -6z"/>
<path d="M12121 6109 c-63 -42 -161 -143 -161 -166 0 -32 62 -10 185 65 71 43
130 83 133 90 4 13 -55 52 -79 52 -9 0 -44 -18 -78 -41z"/>
<path d="M12656 6101 c-43 -27 -80 -51 -82 -53 -2 -3 29 5 69 15 57 16 105 21
229 21 l157 1 -52 33 c-48 30 -56 32 -147 32 l-96 0 -78 -49z"/>
<path d="M13020 6135 c0 -4 34 -22 75 -42 68 -32 78 -34 105 -23 17 7 30 16
30 20 0 5 -40 18 -89 29 -90 21 -121 25 -121 16z"/>
<path d="M12530 6102 c-82 -27 -103 -43 -66 -50 28 -6 57 5 116 42 66 43 60
43 -50 8z"/>
<path d="M6711 6080 c-38 -28 -55 -60 -31 -60 6 0 10 3 10 8 0 4 18 18 40 32
22 14 40 28 40 32 0 19 -22 15 -59 -12z"/>
<path d="M11375 6020 c-60 -38 -110 -74 -110 -81 0 -13 101 -79 122 -79 6 0
14 15 18 33 4 17 26 69 50 115 24 45 41 82 37 81 -4 0 -56 -31 -117 -69z"/>
<path d="M12174 5992 c-71 -43 -129 -85 -129 -93 0 -12 87 -68 107 -69 4 0 16
17 27 38 28 55 97 129 147 158 24 14 41 30 38 35 -15 24 -69 5 -190 -69z"/>
<path d="M11622 6007 c-40 -67 -72 -156 -72 -202 0 -33 2 -36 22 -29 41 13
248 146 259 166 6 11 9 21 7 23 -8 7 -171 95 -177 95 -4 0 -21 -24 -39 -53z"/>
<path d="M12322 6000 c-71 -50 -106 -87 -136 -147 -18 -36 -24 -28 59 -78 35
-22 45 -19 45 13 0 53 89 164 156 194 32 15 30 21 -15 46 l-38 22 -71 -50z"/>
<path d="M12700 6026 c-36 -8 -78 -19 -95 -26 l-30 -12 29 -15 c27 -14 36 -14
97 1 71 17 239 21 299 7 26 -6 42 -3 64 10 l29 17 -39 12 c-61 18 -278 22
-354 6z"/>
<path d="M10995 5989 c-85 -46 -86 -41 15 -99 104 -59 130 -93 110 -140 -7
-16 -30 -41 -53 -56 -47 -31 -36 -44 15 -18 87 45 258 158 255 168 -3 9 -283
166 -297 166 -3 0 -23 -10 -45 -21z"/>
<path d="M12477 5939 c-79 -52 -127 -127 -127 -197 0 -19 40 -48 113 -80 4 -2
3 8 -3 23 -14 38 -12 101 4 134 15 28 61 72 106 102 l25 16 -32 17 c-18 9 -34
16 -36 16 -2 0 -25 -14 -50 -31z"/>
<path d="M12776 5949 c-33 -5 -64 -13 -69 -18 -10 -10 100 -71 127 -71 16 0
133 67 142 81 3 5 -5 9 -18 9 -13 0 -45 2 -73 4 -27 3 -77 1 -109 -5z"/>
<path d="M11915 5859 c-26 -78 -18 -188 20 -263 29 -57 34 -62 125 -109 l95
-50 35 17 c19 9 46 25 60 35 l24 19 -43 47 c-57 61 -81 117 -81 187 l0 56
-104 56 c-57 31 -106 56 -109 56 -3 0 -13 -23 -22 -51z m200 -259 c0 -18 -43
-26 -57 -12 -16 16 2 33 30 30 16 -2 27 -9 27 -18z m80 -110 c0 -18 -43 -26
-57 -12 -16 16 2 33 30 30 16 -2 27 -9 27 -18z"/>
<path d="M12589 5882 c-52 -33 -78 -69 -86 -118 -6 -37 13 -94 31 -94 16 1
239 143 243 155 2 8 -125 85 -140 85 -2 0 -23 -13 -48 -28z"/>
<path d="M11700 5816 c-47 -29 -86 -59 -88 -67 -2 -10 28 -32 83 -62 47 -26
88 -47 90 -47 2 0 1 33 -2 73 -3 39 0 91 5 115 5 23 7 42 3 42 -3 0 -44 -24
-91 -54z"/>
<path d="M13346 5821 c-3 -5 1 -11 9 -15 8 -3 15 -1 15 4 0 13 -18 22 -24 11z"/>
<path d="M11228 5732 c-76 -46 -128 -83 -128 -93 0 -10 69 -53 196 -123 107
-59 197 -106 199 -104 2 2 -11 27 -29 56 -48 75 -78 177 -80 267 -1 60 -4 75
-16 75 -8 0 -72 -35 -142 -78z"/>
<path d="M12160 5752 c0 -74 74 -213 122 -228 23 -7 158 75 158 96 0 15 -58
55 -67 46 -3 -2 0 -13 6 -25 9 -17 8 -22 -10 -32 -19 -10 -25 -8 -41 12 -10
13 -23 41 -30 62 -9 31 -22 45 -62 68 -64 36 -76 36 -76 1z"/>
<path d="M11552 5673 c10 -64 55 -169 95 -221 14 -18 23 -35 22 -36 -2 -2 -23
-13 -46 -26 -24 -13 -43 -27 -43 -30 0 -4 23 -17 50 -30 44 -21 65 -40 43 -40
-11 0 -98 46 -334 174 -107 58 -204 106 -215 106 -26 0 -289 -162 -289 -179 0
-14 65 -51 577 -333 l327 -180 187 115 187 114 -2 67 c-1 42 2 73 10 82 6 8
10 16 8 18 -44 33 -81 46 -121 41 -40 -6 -42 -5 -24 9 10 8 24 17 30 19 6 2
-2 15 -19 28 -71 56 -103 91 -145 156 -43 68 -49 72 -166 137 -67 36 -126 66
-131 66 -6 0 -7 -22 -1 -57z"/>
<path d="M13450 5673 c-79 -117 -77 -115 -110 -98 -30 16 -31 15 -93 -32 -34
-26 -68 -54 -75 -60 -7 -7 -18 -13 -23 -13 -5 0 -9 -20 -9 -45 0 -25 5 -45 10
-45 6 0 10 11 10 25 0 14 5 25 10 25 6 0 10 -9 10 -21 0 -18 4 -20 28 -15 15
4 68 27 117 51 98 47 181 118 215 184 l19 38 -38 21 c-21 12 -40 22 -42 22 -2
0 -15 -17 -29 -37z"/>
<path d="M10837 5560 c-82 -48 -156 -95 -165 -104 -15 -15 -15 -18 -2 -26 8
-5 26 -10 40 -9 l25 0 -28 15 c-16 9 -27 18 -24 20 3 3 20 -4 38 -15 55 -34
81 -27 214 54 68 42 128 82 135 90 9 11 4 19 -29 39 -22 14 -44 26 -48 25 -5
0 -75 -40 -156 -89z"/>
<path d="M13557 5615 c-9 -19 -36 -56 -59 -82 l-43 -47 50 29 c118 68 139 81
142 90 3 9 -50 45 -66 45 -4 0 -15 -16 -24 -35z"/>
<path d="M13635 5536 c-34 -44 -60 -64 -71 -53 -4 4 8 23 27 43 l34 36 -75
-44 c-240 -141 -220 -125 -220 -174 0 -32 4 -44 15 -44 8 0 15 -7 15 -16 0
-11 6 -14 23 -9 44 12 223 104 255 132 32 27 33 30 30 98 l-3 71 -30 -40z"/>
<path d="M12058 5440 c42 -41 61 -47 49 -16 -3 8 -25 25 -49 36 l-43 21 43
-41z"/>
<path d="M13233 5378 c-31 -12 -53 -27 -53 -35 0 -11 11 -8 48 12 42 25 73 47
62 44 -3 -1 -29 -10 -57 -21z"/>
<path d="M13630 5288 c-19 -12 -68 -36 -108 -53 l-72 -32 21 -19 c28 -25 49
-67 49 -99 0 -14 2 -25 4 -25 6 0 130 70 139 79 4 4 7 45 5 89 l-3 82 -35 -22z"/>
<path d="M13370 5135 c0 -33 4 -45 15 -45 8 0 15 -9 15 -20 0 -11 5 -20 10
-20 6 0 10 -11 10 -25 0 -23 2 -24 25 -13 21 9 25 18 25 52 0 23 -7 52 -16 64
-13 19 -63 52 -79 52 -3 0 -5 -20 -5 -45z"/>
<path d="M12441 5003 c1 -33 2 -35 8 -13 5 16 10 -28 15 -115 3 -77 9 -174 12
-215 l5 -76 43 -27 c24 -15 46 -27 50 -27 3 0 5 100 4 222 l-3 221 -60 33
c-33 19 -63 34 -67 34 -5 0 -8 -17 -7 -37z"/>
<path d="M7537 10910 c-39 -31 -67 -83 -69 -130 -4 -97 89 -83 143 22 47 92
-2 164 -74 108z m47 -56 c10 -26 -21 -74 -49 -74 -28 0 -32 18 -14 53 21 38
52 49 63 21z"/>
<path d="M4725 10260 c-75 -31 -121 -153 -74 -195 19 -19 21 -19 55 0 45 24
84 89 84 141 0 57 -20 73 -65 54z m28 -62 c12 -35 -37 -99 -63 -83 -16 10 -12
57 7 77 19 21 49 24 56 6z"/>
<path d="M16588 4183 c-15 -4 -18 -16 -18 -69 0 -69 2 -72 55 -50 93 39 60
145 -37 119z"/>
<path d="M15296 3985 c-35 -32 -46 -65 -46 -133 0 -67 15 -101 52 -121 24 -14
30 -14 61 1 44 21 68 72 68 147 1 62 -19 114 -46 125 -32 12 -62 6 -89 -19z"/>
<path d="M14447 3883 c-4 -3 -7 -26 -7 -50 l0 -45 38 4 37 3 0 -40 c0 -39 -1
-40 -37 -43 l-38 -3 0 -55 c0 -62 8 -66 76 -35 57 26 88 90 82 168 -6 72 -37
103 -102 103 -23 0 -46 -3 -49 -7z"/>
<path d="M13504 3642 c-6 -4 -17 -18 -24 -31 l-12 -24 48 7 c56 7 58 8 49 35
-6 21 -39 28 -61 13z"/>
<path d="M11115 3295 c-39 -38 -35 -134 6 -156 43 -23 87 46 76 118 -11 66
-41 80 -82 38z"/>
<path d="M10281 3087 c-31 -15 -46 -40 -38 -61 14 -37 77 2 77 49 0 28 -5 30
-39 12z"/>
<path d="M9931 3136 c-22 -26 -31 -78 -21 -117 18 -67 81 -61 100 11 11 40 5
85 -13 108 -13 16 -52 15 -66 -2z"/>
<path d="M8475 2920 c-30 -59 -10 -150 34 -150 44 0 76 92 52 153 -15 40 -65
38 -86 -3z"/>
<path d="M7143 2873 c-20 -4 -23 -11 -23 -53 l0 -48 40 5 40 6 0 -40 c0 -39
-1 -41 -40 -47 l-40 -6 0 -50 c0 -48 1 -50 28 -50 34 0 86 31 107 64 23 34 31
128 15 166 -20 47 -63 65 -127 53z"/>
<path d="M7540 2707 c-29 -14 -40 -61 -16 -70 22 -9 66 30 66 59 0 27 -13 30
-50 11z"/>
<path d="M6673 2690 c-12 -5 -26 -18 -32 -29 -14 -25 -14 -87 -1 -112 13 -24
52 -25 73 -1 22 25 23 115 1 136 -8 9 -16 16 -17 15 -1 0 -12 -4 -24 -9z"/>
<path d="M5955 2580 c-25 -28 -27 -122 -3 -146 22 -22 61 -12 76 21 15 32 16
100 2 126 -14 25 -52 24 -75 -1z"/>
<path d="M17540 12714 c-50 -22 -99 -71 -126 -129 -28 -58 -30 -104 -9 -145
20 -39 43 -50 103 -50 156 0 279 247 159 320 -38 24 -79 25 -127 4z"/>
<path d="M3517 5256 c-75 -27 -134 -88 -162 -167 -27 -74 -13 -138 37 -173 31
-22 104 -20 154 5 145 70 195 286 79 335 -42 17 -59 17 -108 0z"/>
<path d="M17569 1670 c-82 -43 -134 -123 -134 -208 0 -48 3 -57 33 -83 57 -51
152 -31 223 48 76 84 88 182 29 236 -37 33 -96 36 -151 7z"/>
<path d="M9101 1384 c-166 -58 -289 -251 -252 -392 51 -188 302 -169 442 34
75 110 83 259 16 322 -53 50 -128 63 -206 36z"/>
</g>
</svg>
