<svg width="27" height="25" viewBox="0 0 27 25" fill="none" xmlns="http://www.w3.org/2000/svg">
<g filter="url(#filter0_dd)">
<rect x="3.5" y="2.5" width="20" height="18" rx="3.5" stroke="#6366F1"/>
</g>
<path d="M7.99396 13.1136C8.69709 13.1136 9.27237 12.5384 9.27237 11.8352C9.27237 11.1321 8.69709 10.5568 7.99396 10.5568C7.29084 10.5568 6.71555 11.1321 6.71555 11.8352C6.71555 12.5384 7.29084 13.1136 7.99396 13.1136ZM13.5018 13.1136C14.2049 13.1136 14.7802 12.5384 14.7802 11.8352C14.7802 11.1321 14.2049 10.5568 13.5018 10.5568C12.7987 10.5568 12.2234 11.1321 12.2234 11.8352C12.2234 12.5384 12.7987 13.1136 13.5018 13.1136ZM19.0096 13.1136C19.7127 13.1136 20.288 12.5384 20.288 11.8352C20.288 11.1321 19.7127 10.5568 19.0096 10.5568C18.3065 10.5568 17.7312 11.1321 17.7312 11.8352C17.7312 12.5384 18.3065 13.1136 19.0096 13.1136Z" fill="#6366F1"/>
<defs>
<filter id="filter0_dd" x="0" y="0" width="27" height="25" filterUnits="userSpaceOnUse" color-interpolation-filters="sRGB">
<feFlood flood-opacity="0" result="BackgroundImageFix"/>
<feColorMatrix in="SourceAlpha" type="matrix" values="0 0 0 0 0 0 0 0 0 0 0 0 0 0 0 0 0 0 127 0" result="hardAlpha"/>
<feOffset dy="1"/>
<feGaussianBlur stdDeviation="1"/>
<feColorMatrix type="matrix" values="0 0 0 0 0 0 0 0 0 0 0 0 0 0 0 0 0 0 0.06 0"/>
<feBlend mode="normal" in2="BackgroundImageFix" result="effect1_dropShadow"/>
<feColorMatrix in="SourceAlpha" type="matrix" values="0 0 0 0 0 0 0 0 0 0 0 0 0 0 0 0 0 0 127 0" result="hardAlpha"/>
<feOffset dy="1"/>
<feGaussianBlur stdDeviation="1.5"/>
<feColorMatrix type="matrix" values="0 0 0 0 0 0 0 0 0 0 0 0 0 0 0 0 0 0 0.1 0"/>
<feBlend mode="normal" in2="effect1_dropShadow" result="effect2_dropShadow"/>
<feBlend mode="normal" in="SourceGraphic" in2="effect2_dropShadow" result="shape"/>
</filter>
</defs>
</svg>
