<svg width="23" height="24" viewBox="0 0 23 24" fill="none" xmlns="http://www.w3.org/2000/svg">
<path d="M21.5445 18.7367L17.9021 14.9359L15.1004 13.728C16.0333 12.3437 16.5331 10.6923 16.5312 9C16.5312 4.45092 12.9845 0.75 8.625 0.75C4.26547 0.75 0.71875 4.45092 0.71875 9C0.71875 13.5491 4.26547 17.25 8.625 17.25C10.2609 17.2519 11.8566 16.7214 13.1899 15.7323L14.3444 18.648L17.9867 22.449C18.2203 22.6927 18.4976 22.8861 18.8028 23.018C19.1081 23.15 19.4352 23.2179 19.7655 23.2179C20.0959 23.2179 20.423 23.15 20.7283 23.0181C21.0335 22.8862 21.3108 22.6928 21.5444 22.4491C21.778 22.2053 21.9633 21.9159 22.0898 21.5975C22.2162 21.279 22.2813 20.9376 22.2813 20.5929C22.2813 20.2482 22.2162 19.9068 22.0898 19.5883C21.9634 19.2698 21.7781 18.9805 21.5445 18.7367ZM2.15625 9C2.15625 5.27812 5.0582 2.25 8.625 2.25C12.1918 2.25 15.0938 5.27812 15.0938 9C15.0938 12.7219 12.1918 15.75 8.625 15.75C5.0582 15.75 2.15625 12.7219 2.15625 9ZM20.528 21.3883C20.3256 21.599 20.0515 21.7173 19.7656 21.7173C19.4798 21.7173 19.2056 21.599 19.0033 21.3883L15.5635 17.799L14.4901 15.088L17.0883 16.208L20.5281 19.7973C20.7299 20.0085 20.8433 20.2946 20.8433 20.5928C20.8433 20.8911 20.7299 21.1772 20.528 21.3883Z" fill="#6366F1"/>
</svg>
