<svg width="20" height="20" viewBox="0 0 20 20" fill="none" xmlns="http://www.w3.org/2000/svg">
<path d="M3.69426 9.99989L0.299262 1.27189C0.0632618 0.664892 0.655262 0.0838915 1.24126 0.289892L1.33426 0.329891L19.3343 9.32989C19.4501 9.38793 19.549 9.475 19.6212 9.58261C19.6934 9.69022 19.7364 9.8147 19.7462 9.94391C19.756 10.0731 19.7321 10.2027 19.6769 10.3199C19.6217 10.4372 19.5371 10.5381 19.4313 10.6129L19.3343 10.6709L1.33426 19.6709C0.751262 19.9619 0.117262 19.4269 0.269262 18.8239L0.299262 18.7279L3.69426 9.99989L0.299262 1.27189L3.69426 9.99989ZM2.40226 2.53989L5.01226 9.24989H11.6393C11.8205 9.2499 11.9956 9.31553 12.1322 9.43466C12.2688 9.55378 12.3576 9.71834 12.3823 9.89789L12.3893 9.99989C12.3892 10.1813 12.3234 10.3565 12.2041 10.4931C12.0848 10.6297 11.92 10.7185 11.7403 10.7429L11.6393 10.7499H5.01026L2.40126 17.4599L17.3223 9.99989L2.40126 2.53989H2.40226Z" fill="#6366F1"/>
</svg>
