<svg width="17" height="17" viewBox="0 0 17 17" fill="none" xmlns="http://www.w3.org/2000/svg">
<path d="M8.5 8.5C9.54429 8.5 10.5458 8.08516 11.2842 7.34673C12.0227 6.60831 12.4375 5.60679 12.4375 4.5625C12.4375 3.51821 12.0227 2.51669 11.2842 1.77827C10.5458 1.03984 9.54429 0.625 8.5 0.625C7.45571 0.625 6.45419 1.03984 5.71577 1.77827C4.97734 2.51669 4.5625 3.51821 4.5625 4.5625C4.5625 5.60679 4.97734 6.60831 5.71577 7.34673C6.45419 8.08516 7.45571 8.5 8.5 8.5ZM11.125 4.5625C11.125 5.25869 10.8484 5.92637 10.3562 6.41866C9.86387 6.91094 9.19619 7.1875 8.5 7.1875C7.80381 7.1875 7.13613 6.91094 6.64384 6.41866C6.15156 5.92637 5.875 5.25869 5.875 4.5625C5.875 3.86631 6.15156 3.19863 6.64384 2.70634C7.13613 2.21406 7.80381 1.9375 8.5 1.9375C9.19619 1.9375 9.86387 2.21406 10.3562 2.70634C10.8484 3.19863 11.125 3.86631 11.125 4.5625ZM16.375 15.0625C16.375 16.375 15.0625 16.375 15.0625 16.375H1.9375C1.9375 16.375 0.625 16.375 0.625 15.0625C0.625 13.75 1.9375 9.8125 8.5 9.8125C15.0625 9.8125 16.375 13.75 16.375 15.0625ZM15.0625 15.0573C15.0612 14.7344 14.8604 13.7631 13.9705 12.8733C13.1147 12.0175 11.5043 11.125 8.5 11.125C5.49438 11.125 3.88525 12.0175 3.0295 12.8733C2.13963 13.7631 1.94012 14.7344 1.9375 15.0573H15.0625Z" fill="#6366F1"/>
</svg>
