<svg width="22" height="20" viewBox="0 0 22 20" fill="none" xmlns="http://www.w3.org/2000/svg">
<path d="M9.8751 14.875C9.8751 15.1734 9.99363 15.4595 10.2046 15.6705C10.4156 15.8815 10.7017 16 11.0001 16C11.2985 16 11.5846 15.8815 11.7956 15.6705C12.0066 15.4595 12.1251 15.1734 12.1251 14.875C12.1251 14.5766 12.0066 14.2905 11.7956 14.0795C11.5846 13.8685 11.2985 13.75 11.0001 13.75C10.7017 13.75 10.4156 13.8685 10.2046 14.0795C9.99363 14.2905 9.8751 14.5766 9.8751 14.875ZM10.2501 7.75V12.0625C10.2501 12.1656 10.3345 12.25 10.4376 12.25H11.5626C11.6657 12.25 11.7501 12.1656 11.7501 12.0625V7.75C11.7501 7.64687 11.6657 7.5625 11.5626 7.5625H10.4376C10.3345 7.5625 10.2501 7.64687 10.2501 7.75ZM21.3993 18.0625L11.6493 1.1875C11.504 0.936719 11.2532 0.8125 11.0001 0.8125C10.747 0.8125 10.4939 0.936719 10.3509 1.1875L0.600887 18.0625C0.312606 18.5641 0.673543 19.1875 1.25011 19.1875H20.7501C21.3267 19.1875 21.6876 18.5641 21.3993 18.0625ZM3.03604 17.4086L11.0001 3.62266L18.9642 17.4086H3.03604Z" fill="black"/>
</svg>
