<svg width="20" height="20" viewBox="0 0 20 20" fill="none" xmlns="http://www.w3.org/2000/svg">
<path d="M18.1946 2.48096H15.2416C15.1824 2.48096 15.1257 2.50445 15.0839 2.54627C15.042 2.58809 15.0186 2.64481 15.0186 2.70396C15.0186 2.74196 15.0306 2.77596 15.0471 2.80696V4.50596C15.0471 4.56822 15.0349 4.62989 15.0111 4.68743C14.9873 4.74497 14.9524 4.79724 14.9084 4.84127C14.8643 4.8853 14.8121 4.92021 14.7545 4.94401C14.697 4.96781 14.6353 4.98002 14.5731 4.97996H13.6541C13.5963 4.97996 13.5391 4.96858 13.4857 4.94646C13.4323 4.92435 13.3838 4.89194 13.3429 4.85108C13.3021 4.81023 13.2697 4.76172 13.2475 4.70834C13.2254 4.65495 13.2141 4.59774 13.2141 4.53996V2.83446C13.2435 2.79725 13.26 2.75142 13.2611 2.70396C13.2611 2.67465 13.2554 2.64563 13.2442 2.61854C13.233 2.59146 13.2166 2.56685 13.1959 2.54613C13.1752 2.52541 13.1506 2.50898 13.1235 2.4978C13.0964 2.48661 13.0674 2.48089 13.0381 2.48096H7.08555C7.02641 2.48096 6.96969 2.50445 6.92787 2.54627C6.88605 2.58809 6.86255 2.64481 6.86255 2.70396C6.86255 2.73846 6.87205 2.76996 6.88605 2.79946V4.51796C6.88605 4.57869 6.87409 4.63884 6.85085 4.69495C6.8276 4.75106 6.79354 4.80205 6.75059 4.84499C6.70764 4.88794 6.65666 4.92201 6.60054 4.94525C6.54443 4.96849 6.48429 4.98046 6.42355 4.98046H5.60755C5.4837 4.98046 5.36491 4.93126 5.27733 4.84368C5.18975 4.7561 5.14055 4.63731 5.14055 4.51346V2.81196C5.16041 2.77937 5.17128 2.74211 5.17205 2.70396C5.17212 2.67465 5.1664 2.64563 5.15521 2.61854C5.14403 2.59146 5.12761 2.56685 5.10688 2.54613C5.08616 2.52541 5.06155 2.50898 5.03447 2.4978C5.00738 2.48661 4.97836 2.48089 4.94905 2.48096H1.83755C1.70613 2.48109 1.58013 2.53332 1.48715 2.6262C1.39418 2.71908 1.34182 2.84504 1.34155 2.97646V17.7435C1.34155 18.0175 1.56405 18.24 1.83755 18.24H18.1946C18.3261 18.2397 18.4521 18.1873 18.545 18.0942C18.6379 18.0011 18.6901 17.875 18.6901 17.7435V2.97646C18.6898 2.84512 18.6375 2.71925 18.5446 2.62638C18.4518 2.53351 18.3259 2.48122 18.1946 2.48096ZM18.1946 17.794H1.83755C1.83094 17.794 1.8244 17.7926 1.8183 17.7901C1.8122 17.7876 1.80667 17.7838 1.80202 17.7791C1.79737 17.7744 1.7937 17.7689 1.79121 17.7627C1.78873 17.7566 1.78749 17.7501 1.78755 17.7435V6.60696H18.2441V17.743C18.2442 17.7496 18.243 17.7561 18.2406 17.7623C18.2382 17.7684 18.2345 17.774 18.2299 17.7788C18.2253 17.7835 18.2198 17.7873 18.2138 17.7899C18.2077 17.7925 18.2012 17.7939 18.1946 17.794Z" fill="black"/>
<path d="M6.07359 4.47186C6.19659 4.47186 6.29659 4.37186 6.29659 4.24886V1.24986C6.29659 1.22057 6.29082 1.19157 6.27961 1.16452C6.2684 1.13746 6.25198 1.11288 6.23127 1.09217C6.21056 1.07146 6.18598 1.05504 6.15892 1.04383C6.13187 1.03262 6.10287 1.02686 6.07359 1.02686C6.0443 1.02686 6.0153 1.03262 5.98825 1.04383C5.96119 1.05504 5.93661 1.07146 5.9159 1.09217C5.89519 1.11288 5.87877 1.13746 5.86756 1.16452C5.85635 1.19157 5.85059 1.22057 5.85059 1.24986V4.24936C5.85059 4.37236 5.95059 4.47186 6.07359 4.47186Z" fill="black"/>
<path d="M14.1505 4.47186C14.2735 4.47186 14.3735 4.37186 14.3735 4.24886V1.24986C14.3735 1.19071 14.35 1.13399 14.3082 1.09217C14.2664 1.05035 14.2096 1.02686 14.1505 1.02686C14.0913 1.02686 14.0346 1.05035 13.9928 1.09217C13.951 1.13399 13.9275 1.19071 13.9275 1.24986V4.24936C13.9275 4.37236 14.027 4.47186 14.1505 4.47186Z" fill="black"/>
<path d="M4.92114 9.98046C5.5999 9.98046 6.15014 9.43022 6.15014 8.75146C6.15014 8.0727 5.5999 7.52246 4.92114 7.52246C4.24238 7.52246 3.69214 8.0727 3.69214 8.75146C3.69214 9.43022 4.24238 9.98046 4.92114 9.98046Z" fill="black"/>
<path d="M8.45312 9.98046C9.13188 9.98046 9.68212 9.43022 9.68212 8.75146C9.68212 8.0727 9.13188 7.52246 8.45312 7.52246C7.77436 7.52246 7.22412 8.0727 7.22412 8.75146C7.22412 9.43022 7.77436 9.98046 8.45312 9.98046Z" fill="black"/>
<path d="M11.9846 9.98046C12.6634 9.98046 13.2136 9.43022 13.2136 8.75146C13.2136 8.0727 12.6634 7.52246 11.9846 7.52246C11.3059 7.52246 10.7556 8.0727 10.7556 8.75146C10.7556 9.43022 11.3059 9.98046 11.9846 9.98046Z" fill="black"/>
<path d="M4.92114 13.4028C5.5999 13.4028 6.15014 12.8526 6.15014 12.1738C6.15014 11.4951 5.5999 10.9448 4.92114 10.9448C4.24238 10.9448 3.69214 11.4951 3.69214 12.1738C3.69214 12.8526 4.24238 13.4028 4.92114 13.4028Z" fill="black"/>
<path d="M8.45312 13.4028C9.13188 13.4028 9.68212 12.8526 9.68212 12.1738C9.68212 11.4951 9.13188 10.9448 8.45312 10.9448C7.77436 10.9448 7.22412 11.4951 7.22412 12.1738C7.22412 12.8526 7.77436 13.4028 8.45312 13.4028Z" fill="black"/>
<path d="M11.9846 13.4028C12.6634 13.4028 13.2136 12.8526 13.2136 12.1738C13.2136 11.4951 12.6634 10.9448 11.9846 10.9448C11.3059 10.9448 10.7556 11.4951 10.7556 12.1738C10.7556 12.8526 11.3059 13.4028 11.9846 13.4028Z" fill="black"/>
<path d="M4.92114 16.8252C5.5999 16.8252 6.15014 16.2749 6.15014 15.5962C6.15014 14.9174 5.5999 14.3672 4.92114 14.3672C4.24238 14.3672 3.69214 14.9174 3.69214 15.5962C3.69214 16.2749 4.24238 16.8252 4.92114 16.8252Z" fill="black"/>
<path d="M8.45312 16.8252C9.13188 16.8252 9.68212 16.2749 9.68212 15.5962C9.68212 14.9174 9.13188 14.3672 8.45312 14.3672C7.77436 14.3672 7.22412 14.9174 7.22412 15.5962C7.22412 16.2749 7.77436 16.8252 8.45312 16.8252Z" fill="black"/>
<path d="M11.9846 16.8252C12.6634 16.8252 13.2136 16.2749 13.2136 15.5962C13.2136 14.9174 12.6634 14.3672 11.9846 14.3672C11.3059 14.3672 10.7556 14.9174 10.7556 15.5962C10.7556 16.2749 11.3059 16.8252 11.9846 16.8252Z" fill="black"/>
<path d="M15.4336 9.98046C16.1123 9.98046 16.6626 9.43022 16.6626 8.75146C16.6626 8.0727 16.1123 7.52246 15.4336 7.52246C14.7548 7.52246 14.2046 8.0727 14.2046 8.75146C14.2046 9.43022 14.7548 9.98046 15.4336 9.98046Z" fill="black"/>
<path d="M15.4336 13.4028C16.1123 13.4028 16.6626 12.8526 16.6626 12.1738C16.6626 11.4951 16.1123 10.9448 15.4336 10.9448C14.7548 10.9448 14.2046 11.4951 14.2046 12.1738C14.2046 12.8526 14.7548 13.4028 15.4336 13.4028Z" fill="black"/>
<path d="M15.4336 16.8252C16.1123 16.8252 16.6626 16.2749 16.6626 15.5962C16.6626 14.9174 16.1123 14.3672 15.4336 14.3672C14.7548 14.3672 14.2046 14.9174 14.2046 15.5962C14.2046 16.2749 14.7548 16.8252 15.4336 16.8252Z" fill="black"/>
</svg>
