<svg width="19" height="22" viewBox="0 0 19 22" fill="none" xmlns="http://www.w3.org/2000/svg">
<g clip-path="url(#clip0)">
<path d="M17.4233 1.79443H0.757537C0.556626 1.79443 0.363943 1.88895 0.221877 2.05718C0.0798117 2.22542 0 2.4536 0 2.69152L0 18.839C0 19.0769 0.0798117 19.3051 0.221877 19.4734C0.363943 19.6416 0.556626 19.7361 0.757537 19.7361H17.4233C17.6243 19.7361 17.8169 19.6416 17.959 19.4734C18.1011 19.3051 18.1809 19.0769 18.1809 18.839V2.69152C18.1809 2.4536 18.1011 2.22542 17.959 2.05718C17.8169 1.88895 17.6243 1.79443 17.4233 1.79443ZM16.6658 17.9419H15.1507V17.0449H11.3631V17.9419H1.51507V3.5886H16.6658V17.9419ZM7.79505 8.71095C7.79505 8.3041 7.93153 7.91392 8.17446 7.62624C8.4174 7.33855 8.74688 7.17693 9.09044 7.17693C9.8101 7.17693 10.3858 7.86769 10.3858 8.71095C10.3858 9.56318 9.8101 10.2539 9.09044 10.2539C8.37078 10.2539 7.79505 9.56318 7.79505 8.71095ZM4.32554 10.1283C4.32554 9.49141 4.76491 8.9711 5.30276 8.9711C5.56193 8.9711 5.81049 9.09302 5.99376 9.31005C6.17702 9.52707 6.27998 9.82142 6.27998 10.1283C6.27998 10.7653 5.84061 11.2766 5.30276 11.2766C4.76491 11.2766 4.32554 10.7653 4.32554 10.1283ZM11.9009 10.1283C11.9009 9.82142 12.0039 9.52707 12.1871 9.31005C12.3704 9.09302 12.619 8.9711 12.8781 8.9711C13.1373 8.9711 13.3859 9.09302 13.5691 9.31005C13.7524 9.52707 13.8553 9.82142 13.8553 10.1283C13.8553 10.7653 13.416 11.2766 12.8781 11.2766C12.3403 11.2766 11.9009 10.7653 11.9009 10.1283ZM15.1507 13.5821V14.3536H3.03015V13.5821C3.03015 12.7389 4.20433 12.0481 5.30276 12.0481C5.7194 12.0481 6.14362 12.1468 6.51482 12.3172C7.08297 11.6982 8.10564 11.2766 9.09044 11.2766C10.0752 11.2766 11.0979 11.6982 11.6661 12.3172C12.0373 12.1468 12.4615 12.0481 12.8781 12.0481C13.9766 12.0481 15.1507 12.7389 15.1507 13.5821Z" fill="#6366F1"/>
</g>
<defs>
<clipPath id="clip0">
<rect width="18.1809" height="21.53" fill="white"/>
</clipPath>
</defs>
</svg>
