<svg width="24" height="24" viewBox="0 0 24 24" fill="none" xmlns="http://www.w3.org/2000/svg">
<path d="M22.1835 11.8358L12.5296 2.18895C12.4601 2.1193 12.3776 2.06404 12.2867 2.02634C12.1958 1.98864 12.0984 1.96924 12 1.96924C11.9016 1.96924 11.8041 1.98864 11.7132 2.02634C11.6223 2.06404 11.5398 2.1193 11.4703 2.18895L1.81636 11.8358C1.53511 12.1171 1.37573 12.4991 1.37573 12.8975C1.37573 13.7249 2.04839 14.3975 2.87573 14.3975H3.89292V21.2811C3.89292 21.696 4.22808 22.0311 4.64292 22.0311H10.5V16.7811H13.125V22.0311H19.357C19.7718 22.0311 20.107 21.696 20.107 21.2811V14.3975H21.1242C21.5226 14.3975 21.9046 14.2405 22.1859 13.9569C22.7695 13.371 22.7695 12.4218 22.1835 11.8358Z" fill="white"/>
</svg>
