<svg width="19" height="22" viewBox="0 0 19 22" fill="none" xmlns="http://www.w3.org/2000/svg">
<g clip-path="url(#clip0)">
<path d="M17.4233 2.0293H0.757537C0.556626 2.0293 0.363943 2.12381 0.221877 2.29205C0.0798117 2.46028 0 2.68846 0 2.92638L0 19.0739C0 19.3118 0.0798117 19.54 0.221877 19.7082C0.363943 19.8765 0.556626 19.971 0.757537 19.971H17.4233C17.6243 19.971 17.8169 19.8765 17.959 19.7082C18.1011 19.54 18.1809 19.3118 18.1809 19.0739V2.92638C18.1809 2.68846 18.1011 2.46028 17.959 2.29205C17.8169 2.12381 17.6243 2.0293 17.4233 2.0293ZM16.6658 18.1768H15.1507V17.2797H11.3631V18.1768H1.51507V3.82346H16.6658V18.1768ZM7.79505 8.94581C7.79505 8.53896 7.93153 8.14878 8.17446 7.8611C8.4174 7.57342 8.74688 7.4118 9.09044 7.4118C9.8101 7.4118 10.3858 8.10255 10.3858 8.94581C10.3858 9.79804 9.8101 10.4888 9.09044 10.4888C8.37078 10.4888 7.79505 9.79804 7.79505 8.94581ZM4.32554 10.3632C4.32554 9.72627 4.76491 9.20596 5.30276 9.20596C5.56193 9.20596 5.81049 9.32789 5.99376 9.54491C6.17702 9.76194 6.27998 10.0563 6.27998 10.3632C6.27998 11.0001 5.84061 11.5115 5.30276 11.5115C4.76491 11.5115 4.32554 11.0001 4.32554 10.3632ZM11.9009 10.3632C11.9009 10.0563 12.0039 9.76194 12.1871 9.54491C12.3704 9.32789 12.619 9.20596 12.8781 9.20596C13.1373 9.20596 13.3859 9.32789 13.5691 9.54491C13.7524 9.76194 13.8553 10.0563 13.8553 10.3632C13.8553 11.0001 13.416 11.5115 12.8781 11.5115C12.3403 11.5115 11.9009 11.0001 11.9009 10.3632ZM15.1507 13.817V14.5885H3.03015V13.817C3.03015 12.9737 4.20433 12.283 5.30276 12.283C5.7194 12.283 6.14362 12.3816 6.51482 12.5521C7.08297 11.9331 8.10564 11.5115 9.09044 11.5115C10.0752 11.5115 11.0979 11.9331 11.6661 12.5521C12.0373 12.3816 12.4615 12.283 12.8781 12.283C13.9766 12.283 15.1507 12.9737 15.1507 13.817Z" fill="black"/>
</g>
<defs>
<clipPath id="clip0">
<rect width="18.1809" height="21.53" fill="white" transform="translate(0 0.234863)"/>
</clipPath>
</defs>
</svg>
