<svg width="21" height="22" viewBox="0 0 21 22" fill="none" xmlns="http://www.w3.org/2000/svg">
<path d="M10.5 11C11.5443 11 12.5458 10.5852 13.2842 9.84673C14.0227 9.10831 14.4375 8.10679 14.4375 7.0625C14.4375 6.01821 14.0227 5.01669 13.2842 4.27827C12.5458 3.53984 11.5443 3.125 10.5 3.125C9.45571 3.125 8.45419 3.53984 7.71577 4.27827C6.97734 5.01669 6.5625 6.01821 6.5625 7.0625C6.5625 8.10679 6.97734 9.10831 7.71577 9.84673C8.45419 10.5852 9.45571 11 10.5 11ZM13.125 7.0625C13.125 7.75869 12.8484 8.42637 12.3562 8.91866C11.8639 9.41094 11.1962 9.6875 10.5 9.6875C9.80381 9.6875 9.13613 9.41094 8.64384 8.91866C8.15156 8.42637 7.875 7.75869 7.875 7.0625C7.875 6.36631 8.15156 5.69863 8.64384 5.20634C9.13613 4.71406 9.80381 4.4375 10.5 4.4375C11.1962 4.4375 11.8639 4.71406 12.3562 5.20634C12.8484 5.69863 13.125 6.36631 13.125 7.0625ZM18.375 17.5625C18.375 18.875 17.0625 18.875 17.0625 18.875H3.9375C3.9375 18.875 2.625 18.875 2.625 17.5625C2.625 16.25 3.9375 12.3125 10.5 12.3125C17.0625 12.3125 18.375 16.25 18.375 17.5625ZM17.0625 17.5573C17.0612 17.2344 16.8604 16.2631 15.9705 15.3733C15.1147 14.5175 13.5043 13.625 10.5 13.625C7.49438 13.625 5.88525 14.5175 5.0295 15.3733C4.13963 16.2631 3.94012 17.2344 3.9375 17.5573H17.0625Z" fill="black"/>
</svg>
