<?xml version="1.0" standalone="no"?>
<!DOCTYPE svg PUBLIC "-//W3C//DTD SVG 20010904//EN"
 "http://www.w3.org/TR/2001/REC-SVG-20010904/DTD/svg10.dtd">
<svg version="1.0" xmlns="http://www.w3.org/2000/svg"
 width="512.000000pt" height="512.000000pt" viewBox="0 0 512.000000 512.000000"
 preserveAspectRatio="xMidYMid meet">

<g transform="translate(0.000000,512.000000) scale(0.100000,-0.100000)"
fill="#000000" stroke="none">
<path d="M378 4953 c-328 -166 -333 -169 -355 -212 -23 -43 -23 -51 -23 -371
0 -321 0 -328 23 -371 22 -43 30 -47 300 -184 l277 -140 0 -210 0 -210 -277
-140 c-270 -137 -278 -141 -300 -184 -23 -43 -23 -50 -23 -371 0 -321 0 -328
23 -371 22 -43 30 -47 300 -184 l277 -140 0 -205 0 -205 -277 -140 c-270 -137
-278 -141 -300 -184 -23 -43 -23 -50 -23 -375 0 -320 1 -332 21 -366 12 -19
29 -40 38 -47 9 -7 161 -87 337 -178 222 -114 331 -165 354 -165 23 0 132 51
354 165 176 91 328 171 337 178 9 7 26 28 38 47 20 34 21 46 21 366 0 325 0
332 -23 375 -22 43 -30 47 -300 184 l-277 140 0 205 0 205 277 140 c270 137
278 141 300 184 23 43 23 50 23 371 0 321 0 328 -23 371 -22 43 -30 47 -300
184 l-277 140 0 210 0 210 277 140 c270 137 278 141 300 184 23 43 23 50 23
371 0 320 0 328 -23 371 -22 43 -27 46 -355 212 -260 130 -342 167 -372 167
-30 0 -112 -37 -372 -167z m597 -265 l225 -113 0 -205 0 -205 -225 -113 -225
-112 -225 112 -225 113 0 205 0 205 223 112 c122 62 223 112 224 112 2 1 104
-50 228 -111z m0 -1810 l225 -113 0 -205 0 -205 -225 -113 -225 -112 -225 112
-225 113 0 205 0 205 223 112 c122 62 223 112 224 112 2 1 104 -50 228 -111z
m0 -1800 l225 -113 0 -207 0 -207 -225 -116 -225 -116 -225 116 -225 116 0
207 0 207 223 112 c122 62 223 112 224 112 2 1 104 -50 228 -111z"/>
<path d="M678 4499 c-43 -22 -78 -81 -78 -129 0 -76 74 -150 151 -150 72 0
149 78 149 150 0 74 -78 151 -151 150 -19 -1 -51 -10 -71 -21z"/>
<path d="M678 2689 c-43 -22 -78 -81 -78 -129 0 -76 74 -150 151 -150 72 0
149 78 149 150 0 74 -78 151 -151 150 -19 -1 -51 -10 -71 -21z"/>
<path d="M678 889 c-43 -22 -78 -81 -78 -129 0 -76 74 -150 151 -150 72 0 149
78 149 150 0 74 -78 151 -151 150 -19 -1 -51 -10 -71 -21z"/>
<path d="M1878 4799 c-43 -22 -78 -81 -78 -129 0 -50 35 -107 80 -130 39 -20
56 -20 1580 -20 1524 0 1541 0 1580 20 45 23 80 80 80 130 0 50 -35 107 -80
130 -39 20 -55 20 -1582 20 -1517 -1 -1544 -1 -1580 -21z"/>
<path d="M1878 4199 c-43 -22 -78 -81 -78 -129 0 -50 35 -107 80 -130 38 -20
57 -20 825 -20 768 0 787 0 825 20 45 23 80 80 80 130 0 50 -35 107 -80 130
-38 20 -57 20 -827 20 -765 -1 -789 -1 -825 -21z"/>
<path d="M1878 2989 c-43 -22 -78 -81 -78 -129 0 -50 35 -107 80 -130 39 -20
56 -20 1580 -20 1524 0 1541 0 1580 20 45 23 80 80 80 130 0 50 -35 107 -80
130 -39 20 -55 20 -1582 20 -1517 -1 -1544 -1 -1580 -21z"/>
<path d="M1878 2389 c-43 -22 -78 -81 -78 -129 0 -50 35 -107 80 -130 38 -20
57 -20 825 -20 768 0 787 0 825 20 45 23 80 80 80 130 0 50 -35 107 -80 130
-38 20 -57 20 -827 20 -765 -1 -789 -1 -825 -21z"/>
<path d="M1878 1189 c-43 -22 -78 -81 -78 -129 0 -50 35 -107 80 -130 39 -20
56 -20 1580 -20 1524 0 1541 0 1580 20 45 23 80 80 80 130 0 50 -35 107 -80
130 -39 20 -55 20 -1582 20 -1517 -1 -1544 -1 -1580 -21z"/>
<path d="M1878 589 c-43 -22 -78 -81 -78 -129 0 -50 35 -107 80 -130 38 -20
57 -20 825 -20 768 0 787 0 825 20 45 23 80 80 80 130 0 50 -35 107 -80 130
-38 20 -57 20 -827 20 -765 -1 -789 -1 -825 -21z"/>
</g>
</svg>