<svg width="108" height="48" viewBox="0 0 108 48" fill="none" xmlns="http://www.w3.org/2000/svg">
<path d="M55.4347 30H58.0696V24.6733H60.7543L63.6094 30H66.5497L63.4034 24.233C65.1151 23.544 66.017 22.081 66.017 20.1065C66.017 17.3295 64.2273 15.4545 60.8892 15.4545H55.4347V30ZM58.0696 22.4858V17.6562H60.4844C62.4517 17.6562 63.3324 18.5582 63.3324 20.1065C63.3324 21.6548 62.4517 22.4858 60.4986 22.4858H58.0696ZM68.3004 30H78.272V27.7983H71.9368V27.6989L74.4439 25.1491C77.2706 22.4361 78.0518 21.1151 78.0518 19.4744C78.0518 17.0384 76.0703 15.2557 73.1442 15.2557C70.2607 15.2557 68.2152 17.0455 68.2152 19.8082H70.7223C70.7223 18.3239 71.6598 17.3935 73.1087 17.3935C74.4936 17.3935 75.5234 18.2386 75.5234 19.6094C75.5234 20.8239 74.7848 21.6903 73.3501 23.1463L68.3004 28.0966V30ZM90.0334 15.4545V24.7372C90.0334 26.5625 88.7621 27.8693 86.7663 27.8693C84.7635 27.8693 83.4993 26.5625 83.4993 24.7372V15.4545H80.8643V24.9574C80.8643 28.0824 83.2081 30.2202 86.7663 30.2202C90.3104 30.2202 92.6683 28.0824 92.6683 24.9574V15.4545H90.0334ZM103.437 19.4531H105.973C105.923 16.9957 103.828 15.2557 100.731 15.2557C97.6772 15.2557 95.3832 16.9744 95.3903 19.5455C95.3903 21.6335 96.8746 22.8338 99.2681 23.4517L100.923 23.8778C102.493 24.2756 103.529 24.7656 103.537 25.8949C103.529 27.1378 102.35 27.9688 100.632 27.9688C98.984 27.9688 97.7056 27.2301 97.5991 25.7031H95.0067C95.1133 28.5938 97.2653 30.2202 100.653 30.2202C104.14 30.2202 106.164 28.4801 106.172 25.9162C106.164 23.3949 104.083 22.2443 101.896 21.7259L100.532 21.3849C99.3391 21.1009 98.0465 20.5966 98.0607 19.3821C98.0678 18.2884 99.0479 17.4858 100.696 17.4858C102.265 17.4858 103.302 18.2173 103.437 19.4531Z" fill="#6366F1"/>
<path d="M35.491 38.9761C34.6366 38.9761 34.0798 39.3121 33.4366 40.2145C33.4174 40.2433 33.2734 40.1089 33.1198 39.9169C32.9566 39.7249 32.563 39.4369 32.2366 39.2737C31.9102 39.1105 31.5934 38.9761 31.5166 38.9761C31.411 38.9761 31.3918 39.5905 31.3918 42.3265C31.3918 44.1697 31.4206 45.7441 31.4494 45.8305C31.4974 45.9553 31.6894 45.9841 32.5342 45.9841C33.2062 45.9841 33.5998 45.9457 33.6766 45.8689C33.7534 45.7921 33.7918 45.2257 33.7918 43.9777C33.7918 42.0097 33.859 41.7313 34.3966 41.3377C34.627 41.1745 34.7998 41.1361 35.4046 41.1457C35.8654 41.1553 36.1726 41.1169 36.211 41.0497C36.2494 40.9921 36.2878 40.5697 36.2878 40.1089C36.2878 39.0913 36.2014 38.9761 35.491 38.9761Z" fill="#4F46E5"/>
<path d="M43.1519 43.872H41.1935L42.2975 42.4512C43.5359 40.8672 44.1119 39.8208 44.2655 38.8992C44.4959 37.4112 43.8431 36.1824 42.5087 35.568C42.1055 35.3856 41.7503 35.3088 41.1647 35.28C39.4751 35.184 38.1791 35.904 37.5167 37.3056C37.1903 38.016 37.0559 38.8608 37.2575 38.9856C37.4207 39.0816 39.1679 39.1008 39.3215 38.9952C39.3791 38.9568 39.5039 38.6688 39.6095 38.3616C39.8399 37.6416 40.1375 37.4016 40.7807 37.4112C41.3567 37.4208 41.6159 37.5456 41.8079 37.92C42.2303 38.736 41.8943 39.36 39.1487 42.864C37.9103 44.448 36.8639 45.8016 36.8255 45.8688C36.7583 45.9744 37.3247 45.9936 39.9551 45.9648L43.1519 45.936L43.6991 45.6672C43.9967 45.5232 44.3807 45.2448 44.5535 45.0528C44.8415 44.7168 45.1199 44.1888 45.1199 43.968C45.1199 43.9104 44.4383 43.872 43.1519 43.872Z" fill="#4F46E5"/>
<path d="M17.155 28.2241C17.0974 28.2337 14.3806 31.1137 14.4094 31.1329C14.4286 31.1425 14.659 31.2577 14.9086 31.3921C15.4462 31.6705 16.243 32.4673 16.483 32.9665C16.5694 33.1585 16.6654 33.3121 16.6942 33.3121C16.7326 33.3121 17.3662 32.6977 18.1246 31.9393L19.4878 30.5761L18.3262 29.3953C17.6926 28.7521 17.1646 28.2241 17.155 28.2241Z" fill="#4F46E5"/>
<path d="M14.1119 32.2659C13.4591 31.9683 12.6719 31.9971 11.9519 32.3427C11.4527 32.5827 10.7711 33.2259 6.89271 37.1139C3.51351 40.5123 2.36151 41.7219 2.21751 42.0483C1.91991 42.7011 1.93911 43.6899 2.26551 44.3331C2.71671 45.2451 3.64791 45.8115 4.66551 45.8115C5.77911 45.8211 5.74071 45.8499 10.7423 40.8675C15.7631 35.8563 15.7439 35.8851 15.7439 34.7523C15.7439 33.6771 15.1103 32.7171 14.1119 32.2659Z" fill="#4F46E5"/>
<path d="M37.488 3.07215C36.1632 2.41935 35.2416 2.10255 33.696 1.75695C32.7744 1.55535 32.2944 1.50735 30.768 1.48815C28.7712 1.45935 28.8672 1.44975 27.2064 1.77615C25.7856 2.06415 24.672 2.44815 23.2896 3.13935C21.7152 3.91695 20.5728 4.76175 19.1424 6.18255C16.8768 8.45775 15.5616 10.8194 14.8224 13.9682C14.5632 15.053 14.544 15.245 14.5536 17.3282C14.5536 19.2578 14.5728 19.661 14.7648 20.5154C15.7056 24.8354 18.0864 28.3393 21.696 30.7009C23.52 31.9009 25.4784 32.6882 27.6 33.0818C29.0688 33.3601 32.0256 33.341 33.4848 33.0434C37.7856 32.1793 41.3568 29.7794 43.8048 26.1122C45.7536 23.1938 46.56 20.0642 46.3488 16.2722C46.0512 10.733 42.576 5.55855 37.488 3.07215ZM43.0944 22.0034C41.8656 25.3442 39.1968 28.2146 36.0096 29.6161C34.1952 30.413 32.8992 30.7106 30.96 30.7874C29.2224 30.8546 27.9264 30.6817 26.3616 30.1729C19.824 28.0705 15.9168 21.3986 17.28 14.6882C17.7984 12.1538 18.9312 10.0129 20.7552 8.10255C22.8768 5.89455 25.6992 4.44495 28.656 4.04175C29.6928 3.89775 32.16 3.99375 33.168 4.20495C38.448 5.33775 42.5664 9.46575 43.632 14.669C44.1216 17.0786 43.9296 19.7378 43.0944 22.0034Z" fill="#4F46E5"/>
<path d="M25.6894 16.7903L29.2126 14.7359L32.7454 12.6719L33.139 12.9215C34.771 13.9583 36.7294 13.4207 37.6511 11.6927C37.9774 11.0879 37.9678 9.75355 37.6318 9.07195C37.3246 8.45755 36.7774 7.91035 36.163 7.62235C35.7598 7.43995 35.5198 7.39195 34.8958 7.40155C33.7534 7.41115 33.2734 7.61275 32.5918 8.36155C32.035 8.97595 31.8334 9.52315 31.8238 10.3967L31.8142 11.1359L28.2814 13.1999L24.7486 15.2639L24.307 14.9759C23.6926 14.5727 23.2798 14.4671 22.4542 14.5151C21.3214 14.5727 20.5054 15.0815 19.9006 16.1087C19.651 16.5215 19.6318 16.6463 19.6318 17.5199C19.6318 18.5951 19.7662 18.9695 20.4094 19.6799C20.947 20.2751 21.6862 20.5823 22.5598 20.5919C23.3278 20.5919 23.7118 20.4767 24.3358 20.0639L24.7294 19.8143L28.3198 21.9167L31.9198 24.0191V24.7487C31.9294 25.6703 32.2078 26.2559 32.9374 26.9183C34.3486 28.1951 36.6622 27.7343 37.5454 25.9967C37.8431 25.4303 37.9006 24.3839 37.6798 23.7215C37.2862 22.5407 36.307 21.8015 34.9918 21.7151C34.3774 21.6767 34.2238 21.7055 33.7342 21.9263C33.427 22.0703 33.1006 22.2527 33.0142 22.3295C32.8798 22.4543 32.4766 22.2431 29.2702 20.3807L25.6702 18.2879L25.6798 17.5391L25.6894 16.7903Z" fill="#4F46E5"/>
</svg>
