<svg width="18" height="18" viewBox="0 0 18 18" fill="none" xmlns="http://www.w3.org/2000/svg">
<path d="M9.00092 7.01973C8.74078 7.01973 8.4832 7.07096 8.24286 7.17051C8.00253 7.27006 7.78416 7.41598 7.60021 7.59992C7.41627 7.78386 7.27036 8.00224 7.17081 8.24257C7.07126 8.4829 7.02002 8.74049 7.02002 9.00063C7.02002 9.26076 7.07126 9.51835 7.17081 9.75869C7.27036 9.99902 7.41627 10.2174 7.60021 10.4013C7.78416 10.5853 8.00253 10.7312 8.24286 10.8307C8.4832 10.9303 8.74078 10.9815 9.00092 10.9815C9.52629 10.9814 10.0301 10.7726 10.4015 10.401C10.7729 10.0294 10.9815 9.52554 10.9814 9.00018C10.9813 8.47481 10.7724 7.97101 10.4009 7.5996C10.0293 7.2282 9.52539 7.01961 9.00002 7.01973H9.00092ZM9.00092 4.67973C9.26094 4.67961 9.51839 4.62828 9.75856 4.52866C9.99874 4.42905 10.217 4.28311 10.4007 4.09916C10.5845 3.91522 10.7303 3.69688 10.8296 3.45661C10.929 3.21634 10.9801 2.95884 10.98 2.69883C10.9799 2.43881 10.9286 2.18136 10.829 1.94118C10.7293 1.701 10.5834 1.4828 10.3995 1.29902C10.2155 1.11524 9.99717 0.969496 9.7569 0.870101C9.51663 0.770706 9.25914 0.719609 8.99912 0.719727C8.47399 0.719965 7.97046 0.928801 7.59931 1.30029C7.22816 1.67178 7.01978 2.1755 7.02002 2.70063C7.02026 3.22576 7.22909 3.72928 7.60058 4.10044C7.97208 4.47159 8.47579 4.67997 9.00092 4.67973ZM9.00092 13.3197C8.47555 13.3197 7.9717 13.5284 7.60021 13.8999C7.22872 14.2714 7.02002 14.7753 7.02002 15.3006C7.02002 15.826 7.22872 16.3298 7.60021 16.7013C7.9717 17.0728 8.47555 17.2815 9.00092 17.2815C9.52629 17.2815 10.0301 17.0728 10.4016 16.7013C10.7731 16.3298 10.9818 15.826 10.9818 15.3006C10.9818 14.7753 10.7731 14.2714 10.4016 13.8999C10.0301 13.5284 9.52629 13.3197 9.00092 13.3197Z" fill="#6366F1"/>
</svg>
